<svg width="15" height="10" viewBox="0 0 15 10" fill="none" xmlns="http://www.w3.org/2000/svg">
<path d="M2.31959 0.333008C1.90703 0.333008 1.51137 0.496896 1.21965 0.788619C0.927927 1.08034 0.764038 1.476 0.764038 1.88856V2.79156L7.32926 6.07456C7.46426 6.14206 7.61311 6.1772 7.76404 6.1772C7.91497 6.1772 8.06382 6.14206 8.19882 6.07456L14.764 2.79234V1.88856C14.764 1.476 14.6001 1.08034 14.3084 0.788619C14.0167 0.496896 13.621 0.333008 13.2085 0.333008H2.31959Z" fill="#E2E8F0"/>
<path d="M14.764 4.09668L8.7207 7.11835C8.42368 7.26689 8.09614 7.34422 7.76404 7.34422C7.43194 7.34422 7.1044 7.26689 6.80737 7.11835L0.764038 4.09668V8.11079C0.764038 8.52335 0.927927 8.91901 1.21965 9.21073C1.51137 9.50246 1.90703 9.66635 2.31959 9.66635H13.2085C13.621 9.66635 14.0167 9.50246 14.3084 9.21073C14.6001 8.91901 14.764 8.52335 14.764 8.11079V4.09668Z" fill="#E2E8F0"/>
</svg>
