<svg width="32" height="32" viewBox="0 0 32 32" fill="none" xmlns="http://www.w3.org/2000/svg">
<path d="M16 2.66699C8.63334 2.66699 2.66667 8.63366 2.66667 16.0003C2.66516 18.7994 3.54509 21.5278 5.18163 23.7986C6.81816 26.0693 9.1282 27.7671 11.784 28.651C12.4507 28.767 12.7 28.367 12.7 28.0163C12.7 27.7003 12.6827 26.651 12.6827 25.5337C9.33334 26.151 8.46667 24.7177 8.20001 23.967C8.04934 23.583 7.40001 22.4003 6.83334 22.083C6.36667 21.8337 5.70001 21.2163 6.81601 21.2003C7.86667 21.183 8.61601 22.167 8.86667 22.567C10.0667 24.583 11.984 24.0163 12.7493 23.667C12.8667 22.8003 13.216 22.2177 13.6 21.8843C10.6333 21.551 7.53334 20.4003 7.53334 15.3003C7.53334 13.8497 8.04934 12.651 8.90001 11.7163C8.76667 11.383 8.30001 10.0163 9.03334 8.18299C9.03334 8.18299 10.1493 7.83366 12.7 9.55099C13.7854 9.24974 14.9069 9.09812 16.0333 9.10033C17.1667 9.10033 18.3 9.24966 19.3667 9.54966C21.916 7.81633 23.0333 8.18433 23.0333 8.18433C23.7667 10.0177 23.3 11.3843 23.1667 11.7177C24.016 12.651 24.5333 13.8337 24.5333 15.3003C24.5333 20.4177 21.4173 21.551 18.4507 21.8843C18.9333 22.3003 19.3507 23.1003 19.3507 24.351C19.3507 26.1337 19.3333 27.567 19.3333 28.0177C19.3333 28.367 19.584 28.783 20.2507 28.6497C22.8974 27.7561 25.1972 26.055 26.8265 23.7859C28.4559 21.5167 29.3326 18.7938 29.3333 16.0003C29.3333 8.63366 23.3667 2.66699 16 2.66699Z" fill="#9199A3"/>
</svg>
