<svg width="20" height="28" viewBox="0 0 20 28" fill="none" xmlns="http://www.w3.org/2000/svg">
<path d="M18 8.66699C18 4.25366 14.4134 0.666992 10 0.666992C5.58669 0.666992 2.00002 4.25366 2.00002 8.66699C2.00002 14.667 10 23.3337 10 23.3337C10 23.3337 18 14.667 18 8.66699ZM7.33335 8.66699C7.33335 7.20033 8.53335 6.00033 10 6.00033C11.4667 6.00033 12.6667 7.20033 12.6667 8.66699C12.6667 9.37424 12.3857 10.0525 11.8856 10.5526C11.3855 11.0527 10.7073 11.3337 10 11.3337C9.29278 11.3337 8.6145 11.0527 8.1144 10.5526C7.61431 10.0525 7.33335 9.37424 7.33335 8.66699ZM0.666687 24.667V27.3337H19.3334V24.667H0.666687Z" fill="#9199A3"/>
</svg>
