<svg width="12" height="14" viewBox="0 0 12 14" fill="none" xmlns="http://www.w3.org/2000/svg">
<path fill-rule="evenodd" clip-rule="evenodd" d="M5.74472 13.9432L5.74719 13.944C5.90941 14.0148 5.99998 13.9983 5.99998 13.9983C5.99998 13.9983 6.09056 14.0148 6.2536 13.944L6.25525 13.9432L6.26019 13.9407L6.27501 13.9341C6.35317 13.8978 6.43033 13.8594 6.50639 13.8188C6.65955 13.7398 6.87364 13.6212 7.12973 13.4623C7.64026 13.1461 8.31959 12.6669 9.00222 12.0089C10.3658 10.6947 11.764 8.64027 11.764 5.76402C11.764 5.00708 11.6149 4.25755 11.3252 3.55823C11.0356 2.8589 10.611 2.22348 10.0758 1.68824C9.54052 1.153 8.9051 0.728429 8.20578 0.43876C7.50646 0.149091 6.75693 0 5.99998 0C5.24304 0 4.49351 0.149091 3.79419 0.43876C3.09486 0.728429 2.45944 1.153 1.9242 1.68824C1.38897 2.22348 0.964391 2.8589 0.674722 3.55823C0.385053 4.25755 0.235962 5.00708 0.235962 5.76402C0.235962 8.63945 1.63415 10.6947 2.99858 12.0089C3.56983 12.5576 4.19716 13.0447 4.87024 13.4623C5.13093 13.6242 5.39912 13.7736 5.6739 13.9102L5.72496 13.9341L5.73978 13.9407L5.74472 13.9432ZM5.99998 7.61674C6.49136 7.61674 6.9626 7.42155 7.31006 7.07409C7.65751 6.72664 7.85271 6.25539 7.85271 5.76402C7.85271 5.27265 7.65751 4.8014 7.31006 4.45395C6.9626 4.1065 6.49136 3.9113 5.99998 3.9113C5.50861 3.9113 5.03736 4.1065 4.68991 4.45395C4.34246 4.8014 4.14726 5.27265 4.14726 5.76402C4.14726 6.25539 4.34246 6.72664 4.68991 7.07409C5.03736 7.42155 5.50861 7.61674 5.99998 7.61674Z" fill="#E2E8F0"/>
</svg>
