
<svg width="13" height="12" viewBox="0 0 13 12" fill="none" xmlns="http://www.w3.org/2000/svg">
<path d="M2.91333 5.19333C3.87333 7.08 5.42 8.62 7.30667 9.58667L8.77333 8.12C8.95333 7.94 9.22 7.88 9.45333 7.96C10.2 8.20667 11.0067 8.34 11.8333 8.34C12.2 8.34 12.5 8.64 12.5 9.00667V11.3333C12.5 11.7 12.2 12 11.8333 12C5.57333 12 0.5 6.92667 0.5 0.666667C0.5 0.3 0.8 0 1.16667 0H3.5C3.86667 0 4.16667 0.3 4.16667 0.666667C4.16667 1.5 4.3 2.3 4.54667 3.04667C4.62 3.28 4.56667 3.54 4.38 3.72667L2.91333 5.19333Z" fill="#E2E8F0"/>
</svg>
