
<svg width="32" height="32" viewBox="0 0 32 32" fill="none" xmlns="http://www.w3.org/2000/svg">
<path d="M30 7.69444C28.9703 8.15068 27.8641 8.45897 26.7013 8.59831C27.8876 7.88804 28.7977 6.7609 29.2268 5.41923C28.1169 6.07776 26.8875 6.5562 25.5792 6.81269C24.5309 5.69797 23.0388 5 21.3864 5C18.2147 5 15.6424 7.57234 15.6424 10.7465C15.6426 11.1864 15.6922 11.6249 15.7904 12.0537C11.0144 11.8131 6.7834 9.52564 3.94962 6.05063C3.45641 6.90151 3.17273 7.88804 3.17273 8.93867C3.17273 10.9314 4.18766 12.6912 5.72782 13.7209C4.81563 13.6918 3.92358 13.4453 3.12588 13.0019V13.0759C3.12588 15.8591 5.1051 18.1811 7.73418 18.709C7.24085 18.8421 6.73206 18.9092 6.22109 18.9087C5.85824 18.909 5.49616 18.8752 5.13965 18.8076C5.8709 21.0889 7.99194 22.7512 10.5063 22.7956C8.53941 24.337 6.06203 25.2557 3.37128 25.2557C2.90761 25.2557 2.4501 25.2286 2 25.1755C4.5428 26.8071 7.56156 27.7566 10.8047 27.7566C21.3728 27.7566 27.1502 19.0036 27.1502 11.4124C27.1502 11.1658 27.144 10.9166 27.1329 10.67C28.2551 9.85858 29.2293 8.84865 29.9975 7.69812L30 7.69444Z" fill="#9199A3"/>
</svg>
