
<svg width="21" height="20" viewBox="0 0 21 20" fill="none" xmlns="http://www.w3.org/2000/svg">
<path d="M19.25 4.80902C18.6064 5.09418 17.9151 5.28686 17.1883 5.37394C17.9297 4.93003 18.4985 4.22556 18.7667 3.38702C18.0731 3.7986 17.3047 4.09762 16.487 4.25793C15.8318 3.56123 14.8993 3.125 13.8665 3.125C11.8842 3.125 10.2765 4.73271 10.2765 6.71655C10.2766 6.99149 10.3076 7.26554 10.369 7.53354C7.38399 7.38322 4.73962 5.95352 2.96851 3.78164C2.66026 4.31344 2.48295 4.93003 2.48295 5.58667C2.48295 6.83213 3.11729 7.93197 4.07989 8.57554C3.50977 8.55738 2.95223 8.40333 2.45367 8.1262V8.17243C2.45367 9.91193 3.69069 11.3632 5.33386 11.6931C5.02553 11.7763 4.70754 11.8183 4.38818 11.8179C4.1614 11.8181 3.9351 11.797 3.71228 11.7548C4.16931 13.1806 5.49496 14.2195 7.06646 14.2472C5.83713 15.2106 4.28877 15.7848 2.60705 15.7848C2.31726 15.7848 2.03131 15.7679 1.75 15.7347C3.33925 16.7544 5.22597 17.3478 7.25296 17.3478C13.858 17.3478 17.4689 11.8773 17.4689 7.13273C17.4689 6.9786 17.465 6.82289 17.4581 6.66877C18.1594 6.16162 18.7683 5.53041 19.2484 4.81132L19.25 4.80902Z" fill="#00ACEE"/>
</svg>
