<svg width="28" height="28" viewBox="0 0 28 28" fill="none" xmlns="http://www.w3.org/2000/svg">
<path d="M14 0.666992C6.64002 0.666992 0.666687 6.64033 0.666687 14.0003C0.666687 21.3603 6.64002 27.3337 14 27.3337C21.36 27.3337 27.3334 21.3603 27.3334 14.0003C27.3334 6.64033 21.36 0.666992 14 0.666992ZM12.6667 24.5737C7.40002 23.9203 3.33335 19.4403 3.33335 14.0003C3.33335 13.1737 3.44002 12.387 3.61335 11.6137L10 18.0003V19.3337C10 20.8003 11.2 22.0003 12.6667 22.0003V24.5737ZM21.8667 21.187C21.52 20.107 20.5334 19.3337 19.3334 19.3337H18V15.3337C18 14.6003 17.4 14.0003 16.6667 14.0003H8.66669V11.3337H11.3334C12.0667 11.3337 12.6667 10.7337 12.6667 10.0003V7.33366H15.3334C16.8 7.33366 18 6.13366 18 4.66699V4.12033C21.9067 5.70699 24.6667 9.53366 24.6667 14.0003C24.6667 16.7737 23.6 19.2937 21.8667 21.187Z" fill="#9199A3"/>
</svg>
