<svg width="500" height="457" viewBox="0 0 500 457" fill="none" xmlns="http://www.w3.org/2000/svg">
<path fill-rule="evenodd" clip-rule="evenodd" d="M179.189 421.203L180.738 422.325C177.242 425.462 171.982 421.561 169.034 417.905C164.292 412.025 159.48 405.777 158.036 398.363C157.215 394.144 157.544 389.797 157.876 385.512L159.213 368.234C159.806 360.578 160.401 352.907 161.726 345.343C165.313 324.872 174.342 305.379 187.638 289.405L187.771 289.245C190.119 286.425 192.683 283.346 192.638 279.691C192.542 271.956 196.996 264.728 202.844 259.665C208.692 254.602 215.853 251.353 222.905 248.173C226.099 246.732 230.27 245.441 232.746 247.921C237.838 253.023 246.336 249.773 253.062 247.182C261.32 244.001 270.14 242.288 278.988 242.145C279.246 242.14 279.506 242.137 279.767 242.133L279.767 242.133C285.079 242.057 291.059 241.972 294.3 237.856C296.364 235.235 300.31 235.387 303.622 235.783L326.4 238.508C328.142 238.716 330.227 239.191 330.776 240.856C332.248 245.321 337.439 247.142 341.939 248.499C357.939 253.323 373.577 259.873 387.16 269.607C400.744 279.341 412.224 292.436 418.316 307.997C408.411 294.459 398.25 280.667 384.505 271.053C380.571 268.302 376.387 265.926 372.141 263.688C362.118 258.404 351.687 253.85 340.85 250.542C290.544 235.187 232.352 249.428 194.822 286.279C189.38 291.622 184.278 297.507 181.192 304.481L185.269 305.746C178.808 308.634 174.008 314.962 172.969 321.962C175.57 317.509 179.276 313.706 183.662 310.992C182.406 315.186 179.142 318.555 175.941 321.858C171.863 326.067 167.888 330.169 168.31 335.731C170.247 330.649 175.125 326.812 180.52 326.129C171.962 334.49 162.779 344.304 163.052 356.266C166.173 349.358 171.474 343.455 178.007 339.611L168.602 352.249C165.045 357.029 161.3 362.49 162.113 368.392C165.207 362.839 169.631 358.033 174.909 354.491C172.367 360.271 168.738 365.571 164.269 370.031C168.519 369.518 172.612 367.757 175.907 365.024C174.526 366.953 173.281 369.13 173.234 371.502C173.188 373.874 174.725 376.419 177.073 376.761C177.783 375.171 180.013 374.5 181.483 375.433C177.027 379.768 176.981 387.801 181.387 392.187C181.779 390.126 183.517 388.388 185.579 387.998C182.293 393.744 181.702 400.96 184.01 407.164C184.708 403.649 186.658 400.396 189.43 398.124C187.832 406.462 184.299 414.423 179.189 421.203ZM177.243 418.547C180.025 418.519 181.756 415.406 182.046 412.639C182.393 409.328 181.571 406.019 180.755 402.792L175.915 383.65C175.004 383.938 174.898 384.929 174.787 385.967C174.693 386.853 174.595 387.774 173.989 388.32C172.764 386.796 172.624 384.49 173.657 382.83C174.7 381.155 174.018 378.808 172.539 377.502C171.059 376.196 169 375.752 167.028 375.687C165.962 375.652 164.828 375.734 163.956 376.348C163.083 376.962 162.624 378.267 163.244 379.135C165.088 381.719 166.476 384.629 167.323 387.689C167.387 387.918 167.448 388.149 167.51 388.382C167.931 389.971 168.364 391.605 169.527 392.737C170.425 393.612 170.654 394.948 170.837 396.189L172.315 406.248C172.585 408.079 172.854 409.946 172.546 411.771C172.238 413.595 171.252 415.404 169.597 416.233L174.881 418.031C175.648 418.291 176.433 418.555 177.243 418.547ZM234.847 253.679C233.806 253.899 232.933 252.984 232.187 252.203L232.101 252.113C231.337 251.314 230.023 250.618 229.218 251.375C219.839 260.2 209.165 267.646 197.644 273.402C195.554 274.447 195.273 277.263 195.272 279.601C195.271 280.381 196.019 281.477 196.506 280.867C198.881 277.891 201.97 275.58 205.023 273.304C213.614 266.899 222.307 260.435 232.155 256.212C233.35 255.7 234.749 254.975 234.847 253.679ZM329.121 243.754C328.589 242.507 327.078 242.057 325.745 241.806C322.115 241.122 318.419 240.812 314.728 240.503C309.658 240.077 304.595 239.653 299.716 238.261C298.153 237.815 296.816 239.399 295.96 240.78C298.531 240.512 301.118 240.402 303.703 240.449C308.201 240.532 312.676 241.092 317.14 241.652C319.409 241.936 321.693 242.224 323.869 242.928C324.122 243.01 324.377 243.097 324.634 243.186L324.634 243.186C326.119 243.696 327.655 244.223 329.121 243.754ZM281.099 262.928C282.127 263.163 283.106 263.931 283.26 264.974C283.413 266.015 282.702 267.029 281.793 267.559C280.885 268.089 279.81 268.238 278.768 268.376L275.629 268.791C275.314 268.833 274.99 268.878 274.717 269.04C273.927 269.507 273.982 270.773 274.627 271.425C275.272 272.076 276.262 272.238 277.179 272.237C281.449 272.228 285.491 269.156 286.796 265.089C287.105 264.124 287.269 263.05 286.886 262.111C286.691 261.635 286.366 261.222 286.005 260.856C284.325 259.154 281.823 258.404 279.438 258.572C277.053 258.741 274.784 259.757 272.843 261.153C271.913 261.823 271.026 262.607 270.498 263.624C269.969 264.641 269.856 265.932 270.447 266.913C270.673 267.288 271.021 267.619 271.453 267.69C271.884 267.76 272.382 267.482 272.436 267.048C272.585 265.842 273.465 264.823 274.514 264.21C275.563 263.597 276.772 263.328 277.964 263.089C278.998 262.883 280.071 262.693 281.099 262.928ZM196.945 322.576C198.118 315.636 203.724 309.994 210.259 307.379C213.86 305.939 217.981 305.307 221.603 306.695C222.497 307.037 223.362 307.51 224.006 308.219C224.611 308.884 224.992 309.723 225.279 310.575C227.119 316.033 225.251 322.344 221.298 326.533C217.345 330.721 211.59 332.919 205.846 333.33C204.005 333.462 202.029 333.388 200.509 332.342C198.989 331.296 198.235 328.972 199.405 327.546C199.958 327.572 200.256 328.066 200.562 328.571C200.713 328.822 200.866 329.075 201.053 329.276C201.691 329.963 202.746 330.012 203.682 329.973C207.755 329.801 211.89 328.792 215.206 326.42C218.521 324.047 220.903 320.172 220.834 316.096C220.811 314.782 220.526 313.438 219.781 312.356C218.56 310.579 216.251 309.777 214.099 309.919C211.948 310.061 209.93 311.015 208.098 312.152C205.688 313.648 203.46 315.529 201.949 317.93C200.438 320.332 199.699 323.3 200.338 326.065C199.773 327.084 198.094 326.88 197.401 325.944C196.707 325.008 196.75 323.725 196.945 322.576ZM234.458 379.777C231.477 381.695 229.007 384.696 228.547 388.21C228.175 391.053 229.128 393.883 230.067 396.593C230.8 398.707 231.557 400.866 232.953 402.615C235.474 405.774 239.648 407.081 243.638 407.723C244.725 407.897 246.373 407.407 245.986 406.376C241.773 406.299 237.63 404.347 234.888 401.147C232.146 397.948 230.852 393.554 231.421 389.379C231.54 388.501 231.74 387.627 232.109 386.821C232.855 385.19 234.247 383.937 235.753 382.963C238.995 380.868 242.942 379.887 246.787 380.219C250.495 380.539 254.199 382.164 256.462 385.118C258.726 388.072 259.265 392.431 257.268 395.571C256.944 396.081 256.706 396.984 257.302 397.091C260.517 395.358 262.302 391.538 262.122 387.89C261.942 384.242 260.015 380.828 257.368 378.311C255.905 376.919 254.171 375.743 252.207 375.27C249.618 374.646 246.909 375.29 244.333 375.967C240.906 376.869 237.438 377.86 234.458 379.777ZM380.816 384.308C370.04 380.285 358.33 378.785 346.887 379.963C342.089 380.457 337.276 381.436 332.963 383.595C324.824 387.668 319.005 396.053 318.037 405.103C317.068 414.152 320.982 423.579 328.075 429.282C330.765 431.444 333.818 433.064 336.875 434.685C338.962 435.792 341.051 436.9 343.027 438.182C343.591 438.722 342.321 439.26 341.578 439.02C334.666 436.79 327.954 433.396 323.023 428.062C317.025 421.574 314.1 412.36 315.257 403.6C316.414 394.841 321.631 386.702 329.108 381.993C335.022 378.269 342.092 376.7 349.077 376.448C356.062 376.196 363.026 377.194 369.932 378.264C374.246 378.932 379.304 380.214 380.816 384.308ZM267.426 397.811C266.937 396.69 264.969 396.398 264.61 397.567C262.324 405.006 255.065 410.631 247.291 410.987C245.533 411.068 243.775 410.904 242.024 410.735C238.253 410.37 234.364 409.939 231.061 408.082C226.313 405.412 223.455 399.93 223.422 394.482C223.388 389.034 225.972 383.74 229.896 379.96C229.351 378.435 227.013 379.172 225.852 380.301C219.416 386.556 218.312 397.352 222.828 405.107C227.343 412.863 236.806 417.21 245.726 416.224C254.646 415.238 262.699 409.266 266.846 401.307C267.411 400.222 267.915 398.932 267.426 397.811ZM211.568 435.481C210.115 441.053 209.977 446.964 211.168 452.598C211.703 455.125 211.761 456.517 211.772 456.778C211.773 456.808 211.774 456.823 211.774 456.823C211.775 456.823 211.776 456.808 211.777 456.778C211.789 456.517 211.852 455.119 212.399 452.588C213.617 446.944 213.328 440.981 211.568 435.481ZM219.287 438.851C217.223 443.178 217.479 448.532 219.947 452.643C220.501 453.566 220.922 454.317 221.232 454.871C221.649 455.616 221.867 456.004 221.942 455.978C222.025 455.95 221.937 455.428 221.754 454.336C221.68 453.898 221.592 453.368 221.492 452.741L219.287 438.851ZM225.1 444.377C224.224 447.14 224.868 450.334 226.747 452.541C228.666 454.794 229.293 455.516 228.708 452.615C228.112 449.654 226.872 446.824 225.1 444.377ZM393.307 412.952C390.672 423.533 382.253 431.55 374.09 438.78C374.463 439.584 375.669 439.295 376.441 438.86C384.709 434.207 391.4 426.622 394.452 417.639C397.505 408.656 396.746 398.334 391.927 390.161C391.523 389.475 391.008 388.745 390.226 388.592C389.445 388.439 388.544 389.345 389.003 389.996C393.635 396.555 395.248 405.16 393.307 412.952ZM274.433 317.417C274.414 315.743 274.437 313.931 275.448 312.597C276.839 310.76 279.48 310.567 281.784 310.535C282.813 310.52 283.854 310.507 284.855 310.745C286.985 311.252 288.683 312.825 290.195 314.409C290.53 314.76 290.887 315.192 290.804 315.67C290.701 316.263 289.958 316.535 289.369 316.414C288.977 316.333 288.626 316.139 288.273 315.943L288.273 315.943L288.273 315.943L288.273 315.943L288.273 315.943L288.273 315.943C288.095 315.845 287.918 315.746 287.735 315.662C285.616 314.69 283.126 315.756 281.222 317.102C280.923 317.314 280.6 317.586 280.593 317.952C280.586 318.32 280.901 318.605 281.198 318.823C283.77 320.707 287.063 321.579 290.23 321.216C290.987 321.129 291.877 320.851 292.074 320.115C292.15 319.827 292.12 319.488 292.092 319.161C292.043 318.614 291.998 318.099 292.458 317.909C292.697 317.81 292.969 317.882 293.218 317.954C294.932 318.452 296.937 319.254 297.269 321.008C297.365 321.515 297.296 322.043 297.135 322.533C296.663 323.967 295.347 325.087 293.856 325.324C293.194 325.429 292.518 325.372 291.85 325.315C290.106 325.165 288.359 325.015 286.631 324.737C283.456 324.225 280.352 323.279 277.432 321.934C276.418 321.467 275.365 320.892 274.852 319.902C274.462 319.149 274.443 318.265 274.433 317.417ZM339.632 276.142C338.612 273.384 336.147 271.208 333.284 270.537C332.398 270.33 331.397 270.279 330.646 270.792C329.895 271.306 329.637 272.557 330.353 273.118C331.048 273.662 330.628 274.942 329.779 275.183C328.931 275.425 328.018 274.849 327.594 274.075C327.17 273.302 327.125 272.382 327.12 271.5C327.114 270.323 327.221 269.009 328.091 268.216C328.422 267.913 328.835 267.718 329.245 267.535C330.939 266.777 332.813 266.136 334.624 266.542C336.349 266.93 337.725 268.204 338.928 269.5C339.915 270.562 340.848 271.675 341.723 272.831C342.494 273.85 343.235 274.937 343.525 276.182C343.814 277.427 343.564 278.871 342.603 279.713C341.662 280.536 340.214 280.607 339.071 280.098C338.062 279.648 337.2 278.659 337.276 277.557C337.351 276.454 338.705 275.54 339.632 276.142ZM348.737 353.671C351.268 353.598 353.625 351.649 354.172 349.177C354.505 347.674 354.095 345.886 352.784 345.078C351.828 344.487 350.624 344.53 349.502 344.602C347.948 344.702 346.335 344.838 344.985 345.614C343.635 346.389 342.631 347.997 343.054 349.496C343.741 351.932 346.207 353.743 348.737 353.671ZM349.062 350.019C348.573 350.151 347.876 350.025 347.831 349.52C347.812 349.31 347.926 349.112 348.055 348.945C348.774 348.014 350.144 347.653 351.229 348.107C350.852 349.031 350.026 349.76 349.062 350.019ZM350.369 312.573C349.957 311.622 350.756 310.513 351.726 310.149C352.503 309.857 353.347 309.887 354.184 309.918L354.185 309.918C354.393 309.925 354.601 309.933 354.807 309.935C355.844 309.948 356.989 309.775 357.662 308.986C357.899 308.708 358.06 308.299 357.879 307.981C357.69 307.649 357.244 307.592 356.862 307.572C354.22 307.435 351.101 307.516 349.578 309.68C349.25 310.145 348.449 309.987 348.143 309.508C347.837 309.029 347.907 308.4 348.081 307.859C348.705 305.92 350.496 304.51 352.452 303.945C354.408 303.38 356.509 303.558 358.495 304.008C359.165 304.159 359.86 304.359 360.349 304.841C360.737 305.223 360.954 305.747 361.095 306.273C361.772 308.788 360.773 311.668 358.685 313.224C356.597 314.781 353.551 314.915 351.334 313.548C350.939 313.304 350.554 312.999 350.369 312.573ZM341.313 357.012C342.54 358.482 343.994 359.819 345.756 360.567C349.319 362.08 353.874 360.683 355.975 357.432C356.74 356.249 357.083 354.443 355.951 353.603C354.138 357.413 348.88 359.095 345.192 357.045C344.486 356.653 343.844 356.15 343.26 355.591C340.607 353.052 339.224 348.905 340.78 345.579C341.287 344.495 342.066 343.559 342.918 342.718C344.776 340.884 347.434 339.383 349.914 340.198C350.017 340.232 350.12 340.27 350.222 340.308C350.57 340.436 350.918 340.564 351.284 340.543C351.757 340.515 352.251 340.092 352.13 339.633C352.093 339.498 352.009 339.38 351.923 339.27C350.39 337.317 347.381 336.714 345.214 337.925C342.635 339.366 340.014 341.063 338.642 343.68C336.409 347.939 338.232 353.32 341.313 357.012ZM382.397 291.312C382.284 291.474 382.312 291.701 382.339 291.917C382.371 292.174 382.402 292.417 382.191 292.521C381.419 292.902 380.495 292.863 379.672 292.611C377.425 291.921 375.919 289.86 374.648 287.883C373.905 286.727 373.165 285.5 373.045 284.131C372.925 282.761 373.625 281.22 374.943 280.833C376.414 280.402 377.855 281.495 378.999 282.514C380.29 283.663 381.61 284.848 382.408 286.38C383.207 287.913 383.385 289.893 382.397 291.312ZM377.513 286.182C377.829 286.491 378.003 286.904 378.176 287.318C378.347 287.726 378.518 288.134 378.827 288.441C379.217 288.83 379.81 289.005 380.349 288.889C379.339 287.326 378.169 285.866 376.862 284.541C376.513 284.646 376.483 285.164 376.694 285.462C376.821 285.643 376.999 285.776 377.178 285.91C377.294 285.996 377.41 286.083 377.513 286.182ZM185.202 427.416C185.078 429.467 185.235 431.844 186.877 433.081C187.424 432.775 187.387 431.993 187.318 431.37C186.894 427.535 188.084 423.839 189.281 420.119C190.139 417.456 191 414.78 191.276 412.033C191.356 411.235 191.144 410.144 190.343 410.113C189.743 410.09 189.356 410.723 189.114 411.272C186.871 416.366 185.54 421.86 185.202 427.416ZM344.47 353.428C346.322 354.247 348.376 355.083 350.315 354.494C351.086 354.26 351.772 353.815 352.447 353.375C352.444 354.508 351.47 355.46 350.384 355.783C349.298 356.107 348.13 355.934 347.023 355.694C345.793 355.428 344.289 354.673 344.47 353.428ZM197.931 447.994C198.404 447.152 198.484 446.154 198.555 445.191L199.114 437.521C199.388 433.756 199.663 429.978 199.417 426.212C199.386 425.737 199.337 425.237 199.061 424.85C198.784 424.463 198.198 424.256 197.818 424.543C197.539 424.755 197.469 425.138 197.42 425.484C196.813 429.839 196.489 434.233 196.45 438.63C196.421 441.818 196.567 445.112 197.931 447.994ZM189.548 441.402C189.057 441.817 188.239 441.452 187.968 440.869C187.697 440.285 187.807 439.605 187.923 438.972C189.136 432.352 190.513 425.763 192.052 419.211C192.09 419.047 192.132 418.877 192.238 418.746C192.643 418.245 193.461 418.749 193.749 419.325C194.454 420.738 194.116 422.425 193.763 423.964L189.972 440.5C189.896 440.83 189.807 441.184 189.548 441.402ZM202.68 441.696C202.468 444.179 202.84 446.67 203.212 449.134C203.344 450.012 203.976 451.177 204.768 450.778L206.313 434.259C206.376 433.587 206.418 432.842 206.001 432.311C205.585 431.781 204.53 431.802 204.397 432.464L203.258 438.128C203.02 439.31 202.782 440.495 202.68 441.696ZM362.196 391.068C357.798 388.804 352.445 387.911 347.877 389.808C344.465 391.225 334.821 397.345 333.537 405.189C332.678 410.44 332.687 415.806 334.525 420.876L334.821 421.671C335.368 423.107 337.112 424.757 338.086 423.57C335.24 418.423 334.708 412.051 336.662 406.504C338.616 400.957 343.024 396.325 348.468 394.099C349.614 393.63 350.81 393.262 352.042 393.145C354.534 392.909 357.021 393.717 359.248 394.858C364.044 397.315 369.985 401.401 372.268 406.282C374.469 410.988 376.089 416.6 374.098 421.398C372.106 426.196 359.024 429.667 359.024 429.667L360.472 432.309C360.472 432.309 367.795 430.864 372.268 427.607C391.044 413.931 366.403 393.234 362.196 391.068Z" fill="#00160A"/>
<path fill-rule="evenodd" clip-rule="evenodd" d="M30.2785 323.546C23.6379 324.259 16.6043 322.722 11.4194 318.513C7.74731 315.531 5.16708 311.384 3.35654 307.014C1.39083 302.269 0.260673 297.18 0.033472 292.05C-0.0520636 290.118 -0.00611871 288.151 0.561482 286.303C1.49564 283.261 3.74532 280.82 6.04181 278.618C10.9275 273.932 16.6702 269.657 23.3675 268.671C27.9312 268 32.5735 268.915 37.0408 270.065C40.5492 270.968 44.0532 272.032 47.209 273.811C54.1822 277.743 59.0145 285.242 59.7135 293.217C60.4125 301.191 59.5525 306.475 48.7906 316.383C43.1984 320.034 36.9191 322.834 30.2785 323.546ZM41.9891 298.514C40.9121 298.852 39.8386 299.454 38.7267 299.258C36.4551 298.858 36.0486 295.742 36.553 293.491C37.9969 287.048 42.4878 281.359 48.4186 278.458C47.076 276.022 43.5095 275.843 40.987 277.014C38.4646 278.184 36.4927 280.293 34.0533 281.628C32.8393 282.293 31.4007 282.763 30.08 282.35C27.907 281.669 27.0775 278.823 27.7889 276.66C28.5003 274.496 30.2758 272.882 31.9807 271.373C25.803 271.589 19.6902 273.443 14.4332 276.695C10.3177 279.241 6.41403 283.414 6.96007 288.223C10.3628 285.484 14.3579 283.485 18.59 282.403C19.4877 282.174 20.6143 282.059 21.176 282.795C21.6015 283.354 21.4794 284.156 21.2067 284.803C19.854 288.011 15.8759 289.087 13.4085 291.544C13.0845 291.866 12.7738 292.239 12.6953 292.689C12.5416 293.572 13.3829 294.377 14.2666 294.524C15.1504 294.672 16.0376 294.35 16.8758 294.034C18.6168 293.377 20.3578 292.72 22.0988 292.063C23.3591 291.588 24.8554 291.134 25.9762 291.881C27.1357 292.654 27.245 294.412 26.5897 295.642C25.9344 296.872 24.7315 297.697 23.5739 298.472C20.7837 300.342 17.9936 302.212 15.2034 304.083C12.8673 305.648 10.2501 307.759 10.4721 310.563C10.6811 313.202 13.5842 314.995 16.2259 314.825C18.8676 314.656 21.1924 313.041 23.1421 311.25C25.0918 309.459 26.8516 307.415 29.1158 306.043C30.5932 305.148 32.7013 304.651 33.9015 305.894C34.8287 306.854 34.7393 308.397 34.3913 309.685C33.3883 313.398 30.6764 316.613 27.185 318.227C30.0257 318.882 32.988 319.006 35.8734 318.589C37.5191 318.352 39.2226 317.895 40.4126 316.734C41.6026 315.573 42.0634 313.53 41.0311 312.226C39.4914 310.282 39.5526 307.437 40.5364 305.161C41.5201 302.884 43.2772 301.046 44.9985 299.26C44.5058 298.245 43.0662 298.175 41.9891 298.514ZM55.1403 302.927C56.6873 299.351 56.7436 295.307 56.3519 291.431C55.9186 287.144 54.4241 282.242 50.3857 280.74C44.4678 283.197 39.9008 288.677 38.5514 294.94C38.438 295.467 38.3493 296.033 38.5564 296.53C38.7634 297.027 39.3788 297.389 39.8557 297.139C41.4919 296.282 43.5041 295.796 45.1675 296.599C46.8308 297.402 47.6409 299.909 46.294 301.173C44.8059 302.57 43.2775 304.023 42.4746 305.899C41.6718 307.776 41.7875 310.205 43.2991 311.576C44.4349 312.606 44.4378 314.629 43.305 315.663C46.526 314.722 48.8211 311.953 50.9099 309.327C52.5066 307.319 54.1218 305.281 55.1403 302.927ZM18.0599 284.436C14.7093 285.825 11.4569 287.452 8.33509 289.299C7.59269 289.738 6.84235 290.203 6.29951 290.874C5.56649 291.779 5.28796 292.961 5.06145 294.103C4.32965 297.795 3.95233 301.769 5.50259 305.198C5.99742 306.293 6.67378 307.294 7.34673 308.289C7.54535 308.583 7.77087 308.896 8.11135 308.995C8.45183 309.094 8.90151 308.82 8.82153 308.474C8.57505 307.41 9.38126 306.408 10.1768 305.66C14.8364 301.273 21.1138 298.756 25.3041 293.919C24.6684 293.166 23.4627 293.52 22.5563 293.907C20.3977 294.829 18.1718 295.593 15.9023 296.192C14.7316 296.501 13.4269 296.752 12.3585 296.182C10.7947 295.349 10.5402 293.068 11.3662 291.5C12.1921 289.932 13.7623 288.92 15.2767 288C16.791 287.079 18.3797 286.119 19.2883 284.597C19.123 284.164 18.4881 284.258 18.0599 284.436ZM29.5272 313.817C31.008 312.627 32.6078 311.224 32.7693 309.332C32.8538 308.342 32.219 307.132 31.2303 307.226C30.9264 307.255 30.6489 307.406 30.3869 307.562C26.0809 310.135 23.2471 315.165 18.3897 316.415C19.7623 317.029 21.1935 317.513 22.6576 317.857C23.0935 317.959 23.5475 318.049 23.986 317.958C24.4962 317.853 24.9231 317.516 25.3293 317.19C26.7286 316.066 28.1279 314.941 29.5272 313.817ZM33.5317 272.696C32.5735 273.756 31.6153 274.816 30.6571 275.875C29.8982 276.715 29.0839 277.822 29.5064 278.872C29.8177 279.646 30.7368 280.036 31.568 279.972C32.3992 279.907 33.1563 279.482 33.8533 279.025C36.3373 277.395 38.5739 275.175 41.4726 274.524C39.4627 273.791 37.4528 273.059 35.4429 272.326C35.0244 272.174 34.5577 272.022 34.1459 272.191C33.8988 272.293 33.7109 272.498 33.5317 272.696Z" fill="#00160A"/>
<path fill-rule="evenodd" clip-rule="evenodd" d="M70.935 146.106C70.6844 151.128 66.81 156.566 61.8172 155.972C59.5637 153.366 57.8 150.131 56.0569 146.934C52.7093 140.794 49.4378 134.794 42.92 133.655C36.5183 132.536 30.5565 137.244 26.5694 142.376C20.7949 149.809 17.0633 158.813 15.887 168.151C15.1955 173.641 17.4469 181.255 22.9473 180.651C29.2301 179.961 33.6983 184.903 38.2428 189.929C42.449 194.582 46.7206 199.306 52.5569 199.705C59.5063 200.179 65.1827 204.343 70.9287 208.557C74.7664 211.372 78.6351 214.209 82.9348 215.986C91.0234 219.327 100.351 218.681 108.607 215.779C116.864 212.877 124.212 207.878 131.166 202.565L131.531 202.286C135.327 199.383 139.301 196.344 144.022 195.704C168.16 192.434 190.61 178.276 203.963 157.903C222.894 173.036 249.362 178.208 272.597 171.315C276.539 170.146 280.507 168.577 283.431 165.686C286.354 162.794 288.012 158.303 286.575 154.45C285.004 150.237 280.307 147.981 275.843 147.438C273.396 147.141 270.93 147.229 268.462 147.317H268.462H268.462H268.462H268.461C266.427 147.389 264.391 147.462 262.364 147.319C250.091 146.451 239.871 137.986 230.578 129.922C244.043 125.792 254.96 115.418 262.169 103.319C269.377 91.2192 273.241 77.4357 276.176 63.6609C277.72 56.4121 278.867 48.246 274.726 42.0994C272.872 39.3483 270.155 37.337 267.446 35.3326C264.396 33.0756 261.359 30.8276 259.581 27.5423C256.161 21.2231 249.495 17.4758 243.173 14.0622C226.627 5.12883 207.621 -4.06535 189.789 1.90058C182.843 4.22446 176.843 8.67748 170.993 13.0846C161.278 20.4031 150.871 28.9879 149.021 41.0094C133.126 33.8979 112.561 39.5774 102.568 53.8388C100.283 57.1008 98.528 60.698 96.7751 64.2916C94.7113 68.5223 92.6501 72.7479 89.7278 76.4154C77.9907 71.0677 66.0317 66.2068 53.8921 61.8493C48.5098 59.9174 42.0805 58.2102 37.442 61.5547C33.7229 64.2363 32.5821 69.4999 33.6738 73.9531C34.7655 78.4063 37.6799 82.1815 40.8052 85.5364C47.5856 92.8146 55.7303 98.8177 64.6893 103.14C64.9784 103.28 65.2695 103.418 65.5615 103.557C68.3666 104.894 71.2503 106.267 73.1183 108.72C75.1806 111.429 75.3085 115.96 72.4173 117.758C68.1469 120.412 67.3606 126.368 68.2359 131.319C68.535 133.011 68.9741 134.686 69.4126 136.36L69.4126 136.36C70.2574 139.584 71.1001 142.8 70.935 146.106ZM186.873 172.583C176.112 183.882 160.97 190.492 145.488 192.424C130.005 194.357 114.195 191.845 99.4045 186.874C103.383 186.871 106.26 181.663 104.143 178.294C95.9921 187.796 83.5654 192.246 71.724 196.31C61.0262 199.981 48.2394 197.315 40.3814 189.18C32.5234 181.046 30.3969 167.698 35.923 157.83C38.3251 153.541 42.3992 149.807 47.2974 149.386C52.1956 148.965 57.4699 153.026 57.0156 157.921C54.2899 157.448 51.4215 159.763 51.3093 162.527C61.8538 161.391 71.7669 155.349 77.6085 146.497C79.6248 143.442 81.157 140.114 82.6905 136.784C83.7202 134.547 84.7504 132.31 85.9282 130.153C88.86 124.782 93.0695 119.663 98.9029 117.818C103.585 116.337 108.646 117.159 113.485 117.993L134.982 121.7C136.591 120.311 133.986 118.085 131.905 117.65C125.186 116.246 118.374 115.381 111.561 114.516C105.243 113.714 98.9246 112.911 92.6799 111.679C79.7012 109.119 66.6567 104.435 57.2099 95.1743C63.6178 91.488 68.4931 85.2241 70.4934 78.1074C70.8981 76.6676 69.9339 74.3025 68.7647 75.235C67.4288 79.855 65.9809 84.6735 62.634 88.127C59.287 91.5804 53.4123 93.0974 49.6241 90.1346C44.7064 86.2884 39.5361 82.0928 37.5913 76.1602C35.6465 70.2277 38.723 62.2604 44.9237 61.533C47.7069 61.2065 50.4276 62.3566 52.9941 63.4816L78.8872 74.8318C86.5936 78.2099 94.4148 81.6217 102.739 82.8475C108.584 83.7081 114.529 83.4666 120.432 83.2231L137.166 82.5329C137.85 82.5046 138.552 82.4726 139.182 82.2039C140.863 81.4866 141.434 79.4332 141.805 77.6433C146.295 55.9736 152.329 33.1053 168.652 18.1617C175.955 11.475 185.054 6.767 194.731 4.66675C204.27 2.59648 214.795 3.20511 223.007 8.48092C209.231 9.4949 195.853 15.3044 185.708 24.6792C181.445 20.1288 173.511 23.8483 170.111 29.075C164.841 37.1771 164.937 48.4321 170.344 56.4434C174.896 63.1869 176.584 71.233 178.276 79.2979C179.831 86.7098 181.389 94.1376 185.177 100.584C191.168 110.783 202.326 117.33 213.98 119.359C225.633 121.389 237.714 119.269 248.79 115.116C236.394 127.48 216.591 131.756 200.198 125.61C199.003 125.162 197.815 124.661 196.625 124.16L196.625 124.16L196.624 124.16L196.624 124.16L196.624 124.16C192.857 122.574 189.077 120.982 185.037 121.029C187.404 123.536 190.427 125.418 193.722 126.434C189.923 132.814 185.938 139.083 181.773 145.23C181.24 146.016 180.633 146.854 179.722 147.12C178.706 147.416 177.645 146.91 176.719 146.398C169.061 142.165 162.198 136.502 156.588 129.788L145.366 143.438C151.125 150.477 157.858 156.719 165.312 161.929C155.39 174.186 140.358 182.17 124.646 183.527C140.91 184.355 157.375 176.726 167.258 163.784C173.515 167.297 180.089 170.246 186.873 172.583ZM238.306 52.5535C241.9 48.6348 243.231 43.0376 242.924 37.7294C242.617 32.4213 240.832 27.3163 238.856 22.3801C244.004 21.7698 249.234 23.712 253.334 26.8834C257.435 30.0547 260.515 34.37 263.041 38.8966C266.104 44.3837 268.452 50.317 269.471 56.5179C271.87 71.1183 266.748 86.0051 259.457 98.8804C258.041 101.38 256.518 103.863 254.451 105.859C252.371 107.869 249.81 109.314 247.187 110.533C236.361 115.563 223.907 117.014 212.214 114.609C219.679 108.394 224.95 99.8326 228.307 90.7185C231.665 81.6045 233.201 71.9177 234.086 62.2453L234.091 62.191C234.314 59.7521 234.549 57.1887 235.939 55.1746C236.399 54.5079 236.968 53.9298 237.538 53.3513C237.798 53.0882 238.057 52.8251 238.306 52.5535ZM224.798 92.8393C221.577 100.373 216.587 107.291 209.822 111.915C209.03 112.456 208.18 112.979 207.226 113.09C206.385 113.189 205.543 112.957 204.735 112.702C198.983 110.886 193.549 107.668 189.859 102.898C188.52 101.166 187.427 99.2567 186.452 97.2973C179.35 83.0272 178.654 65.7139 184.588 50.92C184.872 50.2134 185.277 49.4199 186.024 49.2717C186.99 49.0801 187.732 50.0682 188.274 50.89C192.706 57.607 200.995 61.0076 209.035 61.3597C217.076 61.7119 224.984 59.4268 232.609 56.8498C231.219 60.2475 230.865 63.9491 230.515 67.6157L230.514 67.6212C230.47 68.0811 230.426 68.5405 230.38 68.9987C229.563 77.1516 228.019 85.3053 224.798 92.8393ZM223.161 22.8472C227.275 21.912 232.076 21.6546 235.219 24.4687C236.234 25.3777 236.989 26.5435 237.609 27.7566C241.503 35.3656 239.978 45.387 233.997 51.4932C227.083 58.5524 216.14 59.7162 206.295 58.8782C202.762 58.5776 199.129 58.034 196.113 56.1698C192.211 53.7576 189.9 49.5072 187.763 45.4479C197.25 34.8473 209.289 26.0006 223.161 22.8472ZM256.435 150.814C255.144 154.073 253.841 157.377 253.418 160.857C252.996 164.337 253.546 168.071 255.662 170.865C238.1 171.837 220.252 166.421 206.191 155.854C210.725 149.437 214.306 142.348 216.78 134.89C217.757 131.944 221.487 130.715 224.514 131.397C227.302 132.025 229.643 133.814 231.926 135.558L232.205 135.771C232.308 135.85 232.411 135.929 232.515 136.007C239.99 141.683 248.229 146.259 256.435 150.814ZM133.71 195.321C130.94 198.439 127.63 201.028 124.248 203.469C117.19 208.566 109.493 213.198 100.915 214.678C88.3422 216.848 74.7593 211.426 67.1377 201.194L94.56 190.965C95.2165 190.72 95.8965 190.471 96.5961 190.51C96.9914 190.533 97.3716 190.646 97.7526 190.76C98.0062 190.835 98.2602 190.911 98.5192 190.96C99.3996 191.127 100.288 190.981 101.18 190.834C101.735 190.742 102.291 190.651 102.848 190.634C104.901 190.572 106.787 191.51 108.654 192.438C109.128 192.674 109.6 192.909 110.074 193.127C117.345 196.471 125.729 195.93 133.71 195.321ZM94.1155 77.9922C93.9223 77.56 94.1261 77.0626 94.3301 76.6353C99.9459 64.8738 107.375 53.9802 116.274 44.4579C122.534 53.1495 126.7 63.338 128.323 73.9252C128.648 76.0416 128.297 78.9683 126.173 79.2331C115.989 80.5024 105.627 80.3299 95.4911 78.7224C94.9553 78.6375 94.337 78.4875 94.1155 77.9922ZM132.471 77.2666C130.374 65.7391 126.021 54.6264 119.73 44.7415C125.055 41.9384 131.349 41.8926 137.366 41.9114C141.166 41.9233 145.314 42.0572 148.21 44.5177L140.698 66.6832C139.423 70.4461 138.132 74.3145 138.292 78.2844L133.544 78.3606C133.375 78.3633 133.2 78.365 133.044 78.2998C132.664 78.1412 132.544 77.6717 132.471 77.2666ZM193.569 133.99C194.831 131.845 196.032 129.552 196.16 127.067C201.841 129.622 208.098 130.888 214.326 130.743C215.303 130.72 215.268 132.227 214.868 133.119C213.655 135.818 212.441 138.52 211.038 141.125C209.597 143.799 207.962 146.362 206.329 148.922L202.413 155.059C201.878 155.899 201.324 156.758 200.528 157.357C198.391 158.963 195.34 158.191 192.901 157.095C188.856 155.277 185.132 152.746 181.954 149.653C186.368 144.865 190.269 139.604 193.569 133.99ZM46.6532 139.293C48.5356 141.191 49.7658 143.623 50.9652 146.012L45.318 146.818C43.4364 147.086 41.5072 147.37 39.8441 148.29C38.2261 149.185 36.9782 150.62 35.88 152.108C31.2873 158.33 28.7417 166.038 28.7256 173.772C28.7198 176.565 25.4184 178.558 22.7164 177.85C20.0143 177.141 18.1787 174.458 17.7116 171.704C17.2445 168.95 17.9023 166.134 18.7273 163.465C21.6306 154.073 26.824 145.204 34.5077 139.073C35.9758 137.902 37.5979 136.805 39.4526 136.509C42.0922 136.087 44.7708 137.395 46.6532 139.293ZM283.796 155.014C284.45 155.853 284.933 156.875 284.904 157.938C284.866 159.312 283.995 160.517 283.058 161.522C277.606 167.363 269.228 169.352 261.293 170.29C260.77 170.352 260.222 170.407 259.731 170.215C259.328 170.058 259.005 169.747 258.717 169.424C256.803 167.271 256.044 164.261 256.199 161.384C256.355 158.508 257.348 155.737 258.584 153.135C258.844 152.586 259.146 152.011 259.676 151.717C260.1 151.482 260.605 151.464 261.09 151.451L270.693 151.2C273.057 151.138 275.447 151.078 277.762 151.565C280.076 152.053 282.343 153.147 283.796 155.014ZM176.769 64.2751C172.856 57.0247 169.928 49.2432 168.092 41.2115L169.673 36.9889C171.629 33.2026 174.094 29.68 176.982 26.5457C178.158 25.2693 180.196 25.1281 181.819 25.7431C183.442 26.3582 184.748 27.5812 186.008 28.7749L191.678 34.1465C191.846 34.3062 192.023 34.4786 192.079 34.7039C192.185 35.1281 191.834 35.5165 191.517 35.8177C188.862 38.3421 186.503 41.1883 184.611 44.3257C181.752 49.068 180.007 54.3823 178.284 59.645L176.769 64.2751ZM191.26 23.5537C202.804 17.3709 215.431 11.5528 228.452 12.9442C235.259 13.6716 241.772 16.3799 247.442 20.2164C231.198 16.0408 213.091 19.8924 199.953 30.3179C197.922 31.9292 194.875 33.6794 193.067 31.8216C192.603 31.3447 192.3 30.6763 192.004 30.0252C191.53 28.9822 191.077 27.9833 190.015 27.8857C189.003 27.7925 188.552 26.4189 188.982 25.4974C189.411 24.5759 190.363 24.0337 191.26 23.5537ZM159.547 136.64C161.825 138.829 164.334 140.762 166.838 142.69L176.952 150.48C173.837 153.224 170.79 156.045 167.813 158.939C160.727 154.74 154.403 149.26 149.236 142.845C152.064 139.899 154.779 136.845 157.373 133.691C157.78 134.854 158.657 135.786 159.547 136.64ZM94.5178 115.57C89.1924 119.731 83.6868 124.11 80.7575 130.2C80.1852 131.39 79.7124 132.642 79.2403 133.893L79.2402 133.893C78.2367 136.551 77.2366 139.2 75.2909 141.223C74.4284 140.969 74.0892 139.953 73.8791 139.079L71.8526 130.65C71.5792 129.513 71.3039 128.344 71.4592 127.185C71.6139 126.031 72.1828 124.979 72.7417 123.958L78.6874 113.092C78.8199 112.85 78.9574 112.602 79.1698 112.425C79.6959 111.989 80.4741 112.128 81.1382 112.291L94.5178 115.57ZM181.031 152.896C184.662 156.63 189.176 159.5 194.097 161.206C195.018 160.34 196.797 160.817 197.16 162.028C195.466 164.225 193.607 166.295 191.603 168.213C190.708 169.07 189.274 168.889 188.067 168.612C182.168 167.258 176.487 164.964 171.303 161.842C170.956 161.633 170.566 161.337 170.6 160.933C170.623 160.662 170.837 160.451 171.037 160.266L178.316 153.562C179.079 152.86 180.307 152.152 181.031 152.896ZM273.965 59.2455C273.897 60.0671 273.781 60.9838 273.139 61.5005C273.134 55.0478 271.534 48.6022 268.521 42.8962C267.974 41.8612 267.382 40.8497 266.722 39.8825C266.638 39.7581 266.551 39.6337 266.465 39.5089C265.8 38.5491 265.12 37.567 264.958 36.4211L272.758 44.569C273.476 45.3187 274.214 46.1008 274.553 47.0816C274.88 48.0274 274.802 49.0589 274.72 50.0564L273.965 59.2455ZM265.003 48.891L263.236 46.6646C261.293 44.2152 258.909 41.5405 255.782 41.5371C253.968 41.5352 252.299 42.4643 250.725 43.367L248.279 44.7696C247.611 45.1527 246.925 45.5511 246.454 46.1605C245.095 47.9177 246.087 50.4852 247.37 52.2976C248.259 53.5518 249.324 54.756 250.737 55.3596C252.566 56.1403 254.668 55.795 256.585 55.2665C259.209 54.5427 261.745 53.4986 264.118 52.1646C264.877 51.738 265.715 51.1131 265.677 50.2434C265.654 49.7313 265.321 49.2926 265.003 48.891ZM249.572 50.6094C249.268 50.1255 248.954 49.6085 248.949 49.0371C248.939 47.9197 250.054 47.1699 251.035 46.6348L254.521 44.7333C255.048 44.4458 255.597 44.1517 256.196 44.1113C256.795 44.0709 257.461 44.3594 257.663 44.9252C258.257 46.5945 259.722 47.9261 261.44 48.3592C261.996 48.4994 262.175 49.2695 261.912 49.7794C261.649 50.2892 261.111 50.5872 260.597 50.8422C258.76 51.754 256.839 52.4975 254.866 53.0604C254.076 53.286 253.239 53.4834 252.439 53.2932C251.13 52.9821 250.287 51.7481 249.572 50.6094ZM224.772 67.8203C221.314 68.2228 220.657 74.4568 222.262 77.7818C222.593 78.4659 223.11 79.1703 223.863 79.2659C225.152 79.4294 225.863 77.8397 226.149 76.5726L226.155 76.5431C226.531 74.8732 228.209 67.4201 224.772 67.8203ZM206.94 75.998C207.632 74.3852 207.862 72.578 207.598 70.8433C207.475 70.0374 207.233 69.2191 206.694 68.607C206.156 67.9949 205.266 67.6391 204.498 67.915C203.804 68.1647 203.368 68.844 203.039 69.5045C201.879 71.8367 201.416 74.5106 201.726 77.097C201.87 78.3001 203.386 78.9576 204.537 78.5771C205.687 78.1966 206.463 77.1116 206.94 75.998ZM217.133 72.3071C217.67 71.8624 218.347 72.6701 218.565 73.3323C219.28 75.5085 219.873 77.7253 220.339 79.9684C220.633 81.3859 220.876 82.8586 220.562 84.2719C220.12 86.2647 218.606 87.8857 216.848 88.9239C215.091 89.9621 213.09 90.4996 211.118 91.0255C210.597 91.1644 209.942 91.2634 209.606 90.8421C209.32 90.4845 209.461 89.9243 209.786 89.6022C210.105 89.2863 210.549 89.1405 210.976 89.0002L211.002 88.9919C214.076 87.982 217.362 86.1591 218.077 83.003C218.471 81.2677 217.992 79.5243 217.511 77.7737L217.511 77.7735C217.073 76.1791 216.634 74.5786 216.85 72.9725C216.883 72.7278 216.943 72.4646 217.133 72.3071ZM195.661 65.2084C194.852 64.0869 195.5 62.3828 196.674 61.6514C197.848 60.92 199.332 60.9299 200.704 61.107C202.342 61.3185 203.953 61.735 205.488 62.3438C205.814 62.4734 206.166 62.6385 206.31 62.9592C206.576 63.5532 205.887 64.2036 205.236 64.203C204.712 64.2026 204.237 63.9504 203.767 63.701C203.654 63.6406 203.54 63.5804 203.427 63.524C200.864 62.2525 197.467 62.9895 195.661 65.2084ZM225.194 64.822C226.411 64.6195 227.702 64.9006 228.725 65.5911C229.153 65.8797 229.766 65.3943 229.768 64.8783C229.77 64.3624 229.386 63.9284 228.98 63.6094C228.107 62.9222 227.019 62.511 225.91 62.4483C225.193 62.4078 224.401 62.5463 223.94 63.0956C223.479 63.6448 223.618 64.6757 224.309 64.8669C224.556 64.9352 224.815 64.8891 225.069 64.8437C225.111 64.8363 225.152 64.8289 225.194 64.822ZM210.081 96.4593C210.424 96.2659 210.876 96.6036 210.927 96.9939C210.978 97.3842 210.755 97.7573 210.501 98.0576C209.224 99.5644 207.024 100.028 205.081 99.6752C203.138 99.3219 201.396 98.2774 199.758 97.1755C198.987 96.6573 198.228 96.1221 197.481 95.5703C196.706 94.9984 195.881 94.2986 195.789 93.3405C195.696 92.3824 196.923 91.4167 197.624 92.0766C199.347 93.6985 201.108 95.3475 203.251 96.3511C205.393 97.3547 208.02 97.6221 210.081 96.4593ZM173.198 104.141C166.021 88.5416 163.027 71.041 164.61 53.9428C164.637 53.6506 164.674 53.3377 164.867 53.1167C165.139 52.805 165.698 52.818 165.955 53.1421C165.863 62.5477 165.776 72.01 167.311 81.2899C168.846 90.5698 172.107 99.7509 178.059 107.034C178.237 107.251 178.417 107.468 178.598 107.685C179.622 108.913 180.655 110.151 181.236 111.632C177.365 111.557 174.816 107.658 173.198 104.141ZM180.237 33.6985C180.104 33.5551 179.95 33.4284 179.77 33.351C179.253 33.1276 178.646 33.3566 178.193 33.692C176.386 35.0291 176.379 38.1559 178.18 39.5012C179.058 38.753 179.959 37.9756 180.474 36.943C180.989 35.9103 181.02 34.5459 180.237 33.6985ZM195.812 50.1721C197.759 51.7524 199.978 52.9972 202.341 53.8352C209.968 56.5396 218.539 54.8417 225.898 51.4777C227.023 50.9638 228.458 51.2347 229.317 52.1233C224.592 55.4908 218.802 57.3418 212.999 57.3405C211.72 57.3402 210.442 57.2525 209.167 57.1411C206.559 56.9132 203.931 56.579 201.477 55.6655C199.023 54.752 196.732 53.2066 195.343 50.9872L195.812 50.1721ZM278.863 152.96C278.788 153.22 278.996 153.468 279.188 153.659L282.086 156.534C282.402 155.707 282.047 154.744 281.44 154.101C280.832 153.457 280.011 153.065 279.21 152.688C279.053 152.695 278.907 152.809 278.863 152.96Z" fill="#00160A"/>
<path fill-rule="evenodd" clip-rule="evenodd" d="M469.174 41.1002C472.724 42.3306 476.068 39.129 479.128 36.9479C483.862 33.5728 490.037 32.2967 495.721 33.5189C496.663 33.7217 497.651 34.026 498.272 34.7639C498.84 35.4386 499.001 36.3591 499.093 37.2362C499.652 42.6053 498.31 48.1536 495.357 52.6728C493.921 54.8714 492.121 56.829 490.837 59.1196C489.552 61.4103 488.819 64.2088 489.734 66.6704C495.174 81.3055 492.91 98.5674 483.879 111.304C474.848 124.041 459.307 131.889 443.696 131.597C435.713 131.448 427.891 129.317 420.369 126.637C417.087 125.468 413.479 124.185 410.221 125.42C404.277 127.673 398.018 129.095 391.684 129.634C390.112 129.767 388.47 129.836 387.019 129.215C384.848 128.286 383.538 125.932 383.288 123.584C383.039 121.236 383.688 118.885 384.508 116.671C386.982 109.991 394.661 99.5555 399.309 97.1517C398.933 89.0399 398.974 80.833 400.728 72.9041C402.482 64.9753 406.061 57.2816 411.932 51.6715C414.357 49.3542 417.132 47.4255 420.039 45.7519C434.741 37.287 453.145 35.5448 469.174 41.1002ZM446.785 40.4416C435.542 40.7048 424.598 45.2209 415.81 52.2372C413.229 54.2972 410.804 56.5858 408.867 59.2599C407.341 61.368 406.133 63.694 405.124 66.0934C399.138 80.3306 400.505 97.4364 408.675 110.543C408.854 110.828 409.058 111.131 409.376 111.242C409.768 111.379 410.19 111.18 410.557 110.984C436.218 97.3091 459.06 78.369 477.249 55.6827C477.682 55.1424 478.138 54.5149 478.045 53.8287C477.974 53.314 477.607 52.896 477.249 52.5201C469.487 44.3822 458.028 40.1785 446.785 40.4416ZM462.503 125.433C474.691 119.711 483.949 108.403 487.908 95.5337C488.804 92.6194 489.449 89.6068 489.512 86.5585C489.565 83.9949 489.207 81.4426 488.851 78.9035C488.333 75.2223 487.816 71.5411 487.299 67.8599C487.162 66.8839 486.221 65.5956 485.534 66.3024C466.464 85.9283 445.64 103.85 423.391 119.783C422.651 120.313 421.836 120.968 421.796 121.878C421.75 122.931 422.754 123.695 423.667 124.221C435.332 130.948 450.314 131.155 462.503 125.433ZM387.321 123.935C388.207 125.357 390.129 125.648 391.805 125.695C400.594 125.938 409.29 123.362 417.154 119.429C425.018 115.495 432.135 110.234 439.052 104.805C448.277 97.5643 457.227 89.9758 465.95 82.1364C476.752 72.4275 487.366 62.1293 494.458 49.4545C495.83 47.0027 497.096 44.3143 496.882 41.5131C496.667 38.7118 494.433 35.8837 491.625 35.9932C485.668 36.2255 479.81 38.5161 475.276 42.3866C474.374 43.1563 475.011 44.7949 476.121 45.2115C477.231 45.6282 478.468 45.2142 479.553 44.7354C480.638 44.2566 481.767 43.6967 482.946 43.8277C484.746 44.0279 486.025 45.8709 486.132 47.679C486.239 49.4872 485.44 51.225 484.497 52.772C482.754 55.635 480.477 58.1306 478.176 60.5683C457.722 82.2374 434.128 100.937 408.36 115.901C406.04 117.248 403.692 118.57 401.194 119.552C399.884 120.067 398.383 120.48 397.104 119.891C395.008 118.926 394.84 115.983 395.469 113.762C396.413 110.428 398.453 107.414 401.198 105.298C400.678 103.834 400.159 102.369 399.639 100.904C392.863 105.232 388.108 112.593 386.949 120.549C386.782 121.697 386.707 122.95 387.321 123.935ZM406.585 113.883C406.633 113.732 406.545 113.575 406.461 113.441C405.586 112.05 404.71 110.659 403.835 109.269C403.439 108.639 402.673 107.927 402.079 108.374C399.94 109.985 398.408 112.385 397.848 115.004C397.737 115.521 397.673 116.098 397.954 116.546C398.478 117.378 399.729 117.193 400.655 116.861C402.628 116.154 404.529 115.245 406.318 114.152C406.428 114.085 406.546 114.007 406.585 113.883ZM482.726 47.6832C482.639 47.3219 482.208 47.165 481.837 47.1488C480.709 47.0996 479.531 48.0267 479.602 49.1533C479.674 50.2798 481.348 50.9892 482.048 50.1034C482.259 49.836 482.348 49.495 482.433 49.1648C482.516 48.8377 482.599 48.5105 482.683 48.1833C482.725 48.0194 482.766 47.8475 482.726 47.6832Z" fill="#00160A"/>
</svg>
