<svg width="24" height="24" viewBox="0 0 24 24" fill="none" xmlns="http://www.w3.org/2000/svg">
<g clip-path="url(#clip0_5055_98934)">
<path d="M23.9793 7.05606C23.923 5.78085 23.7168 4.90416 23.4214 4.14449C23.1167 3.33811 22.6478 2.61617 22.0336 2.01602C21.4334 1.40652 20.7067 0.932921 19.9097 0.632936C19.1456 0.337529 18.2735 0.131312 16.9983 0.0750879C15.7135 0.0141019 15.3057 0 12.0472 0C8.78881 0 8.38095 0.0141019 7.10098 0.0703262C5.82577 0.126551 4.94907 0.332951 4.18959 0.628174C3.38303 0.932921 2.66109 1.40176 2.06094 2.01602C1.45144 2.61617 0.978025 3.34288 0.677857 4.13991C0.382451 4.90416 0.176234 5.77609 0.12001 7.0513C0.0590237 8.33604 0.0449219 8.74389 0.0449219 12.0023C0.0449219 15.2608 0.0590237 15.6686 0.115248 16.9486C0.171472 18.2238 0.377872 19.1005 0.673279 19.8602C0.978025 20.6666 1.45144 21.3885 2.06094 21.9887C2.66109 22.5982 3.38779 23.0718 4.18482 23.3717C4.94907 23.6672 5.82101 23.8734 7.0964 23.9296C8.37619 23.986 8.78423 23.9999 12.0427 23.9999C15.3011 23.9999 15.709 23.986 16.9889 23.9296C18.2642 23.8734 19.1409 23.6672 19.9003 23.3717C21.5133 22.7482 22.7885 21.4729 23.4121 19.8602C23.7073 19.096 23.9137 18.2238 23.9699 16.9486C24.0261 15.6686 24.0402 15.2608 24.0402 12.0023C24.0402 8.74389 24.0355 8.33604 23.9793 7.05606ZM21.818 16.8549C21.7664 18.027 21.5695 18.6599 21.4054 19.0818C21.0021 20.1274 20.1723 20.9572 19.1267 21.3605C18.7048 21.5246 18.0673 21.7215 16.8998 21.7729C15.6339 21.8293 15.2542 21.8433 12.052 21.8433C8.84979 21.8433 8.46538 21.8293 7.20409 21.7729C6.03198 21.7215 5.39905 21.5246 4.97709 21.3605C4.45679 21.1682 3.98319 20.8634 3.59877 20.4649C3.20026 20.0758 2.89551 19.6069 2.70321 19.0866C2.53912 18.6647 2.34224 18.027 2.29078 16.8596C2.23437 15.5937 2.22045 15.2139 2.22045 12.0117C2.22045 8.80946 2.23437 8.42505 2.29078 7.16393C2.34224 5.99183 2.53912 5.35889 2.70321 4.93694C2.89551 4.41645 3.20026 3.94303 3.60353 3.55843C3.99253 3.15992 4.46137 2.85517 4.98185 2.66306C5.40381 2.49896 6.04151 2.30208 7.20885 2.25044C8.47472 2.19421 8.85455 2.18011 12.0566 2.18011C15.2636 2.18011 15.6432 2.19421 16.9045 2.25044C18.0766 2.30208 18.7096 2.49896 19.1315 2.66306C19.6518 2.85517 20.1254 3.15992 20.5098 3.55843C20.9083 3.94761 21.2131 4.41645 21.4054 4.93694C21.5695 5.35889 21.7664 5.99641 21.818 7.16393C21.8742 8.42981 21.8883 8.80946 21.8883 12.0117C21.8883 15.2139 21.8742 15.589 21.818 16.8549Z" fill="white"/>
<path d="M12.0461 5.83789C8.64245 5.83789 5.88086 8.59929 5.88086 12.0032C5.88086 15.407 8.64245 18.1684 12.0461 18.1684C15.45 18.1684 18.2114 15.407 18.2114 12.0032C18.2114 8.59929 15.45 5.83789 12.0461 5.83789ZM12.0461 16.0024C9.83799 16.0024 8.04687 14.2115 8.04687 12.0032C8.04687 9.79484 9.83799 8.0039 12.0461 8.0039C14.2544 8.0039 16.0454 9.79484 16.0454 12.0032C16.0454 14.2115 14.2544 16.0024 12.0461 16.0024Z" fill="white"/>
<path d="M19.8944 5.59361C19.8944 6.38844 19.25 7.03292 18.4549 7.03292C17.6601 7.03292 17.0156 6.38844 17.0156 5.59361C17.0156 4.79859 17.6601 4.1543 18.4549 4.1543C19.25 4.1543 19.8944 4.79859 19.8944 5.59361Z" fill="white"/>
</g>
<defs>
<clipPath id="clip0_5055_98934">
<rect width="24" height="24" fill="white" transform="translate(0.00195312)"/>
</clipPath>
</defs>
</svg>
