<svg width="524" height="490" viewBox="0 0 524 490" fill="none" xmlns="http://www.w3.org/2000/svg">
<path fill-rule="evenodd" clip-rule="evenodd" d="M37.0312 234.537C37.0312 234.537 14.7606 215.548 46.0047 149.983C77.2488 84.4186 140.524 98.7893 180.969 73.0003C240.729 34.8959 216.234 5.07634 290.75 0.269718C384.57 -5.78219 389.883 92.0171 436.823 92.0171C439.91 92.0171 513.004 62.7016 523.703 142.954C529.091 183.37 436.823 245.002 436.823 245.002C436.823 245.002 398.422 279.745 396.313 296.902C387.469 368.852 405.912 451.26 199.227 489.197C172.496 494.104 128.11 476.356 103.622 443.572C84.4377 417.887 7.48174 436.11 0.298114 351.669C-3.32258 309.108 37.0312 234.537 37.0312 234.537Z" fill="#E6F2FF"/>
<path d="M174.897 177.492C175.594 177.082 176.492 177.313 176.904 178.009L178.562 180.802C185.15 191.834 187.785 195.416 190.585 197.035C192.887 198.366 195.266 197.953 199.623 195.403L200.205 195.055C202.944 193.35 215.482 184.754 220.329 181.667C221.011 181.233 221.917 181.433 222.352 182.114C222.788 182.795 222.587 183.699 221.905 184.134L221.159 184.613C215.757 188.108 203.623 196.426 201.475 197.708C196.201 200.856 192.781 201.563 189.355 199.701L189.116 199.567C185.434 197.438 182.571 193.353 174.379 179.495C173.968 178.8 174.2 177.903 174.897 177.492Z" fill="#007BFF"/>
<path d="M198.629 194.398C199.431 194.291 200.168 194.853 200.275 195.654C200.774 199.374 201.97 203.105 203.868 206.851C204.233 207.571 203.944 208.451 203.222 208.816C202.499 209.181 201.618 208.892 201.253 208.171C199.21 204.141 197.914 200.096 197.371 196.042C197.263 195.241 197.826 194.505 198.629 194.398Z" fill="#007BFF"/>
<path fill-rule="evenodd" clip-rule="evenodd" d="M369.349 283.737C369.112 284.334 368.594 285.161 367.992 285.943L368.511 286.48L369.112 287.119L369.246 287.247C369.304 287.299 369.35 287.33 369.383 287.339C369.578 287.367 369.713 287.546 369.686 287.741C369.658 287.932 369.48 288.07 369.286 288.042C369.11 288.038 368.47 287.789 367.708 287.171C367.57 287.059 367.432 286.93 367.293 286.788C366.853 287.278 366.409 287.699 366.025 287.96C365.461 288.349 364.972 288.38 364.738 288.222C364.508 288.069 364.288 287.554 364.662 286.513C364.72 286.324 364.922 286.225 365.108 286.284C365.294 286.343 365.397 286.541 365.338 286.729C365.281 286.922 365.274 287.099 365.273 287.24L365.49 287.093C365.566 287.038 365.645 286.976 365.717 286.904C365.978 286.647 366.271 286.334 366.564 285.996C366.099 285.456 365.625 284.823 365.242 284.092C365.055 283.735 364.906 283.357 364.764 282.959C364.666 282.737 364.767 282.476 364.991 282.377C365.214 282.279 365.475 282.381 365.573 282.603C366 283.496 366.546 284.265 367.084 284.924L367.263 285.139C367.754 284.499 368.175 283.851 368.366 283.357C368.472 283.088 368.778 282.954 369.048 283.057C369.321 283.164 369.455 283.468 369.349 283.737Z" fill="#007BFF"/>
<path fill-rule="evenodd" clip-rule="evenodd" d="M151.304 99.2101L150.411 99.0487C145.423 98.1231 141.599 96.9868 134.454 94.5145C133.635 94.231 133.201 93.3382 133.485 92.5204C133.769 91.7027 134.664 91.2696 135.483 91.5531L137.263 92.1647C143.53 94.2995 147.047 95.2782 151.849 96.1234C168.009 98.9674 180.108 90.6865 181.098 74.8936C181.152 74.0298 181.897 73.3733 182.763 73.4273C183.628 73.4814 184.286 74.2255 184.232 75.0893C183.118 92.8508 169.22 102.363 151.304 99.2101Z" fill="#001933"/>
<path fill-rule="evenodd" clip-rule="evenodd" d="M191.681 116.123L192.583 118.123L194.638 118.712C194.749 118.744 194.813 118.86 194.781 118.97C194.772 119.005 194.753 119.036 194.728 119.061L193.166 120.613L193.254 122.846C193.258 122.961 193.168 123.058 193.053 123.063C193.014 123.064 192.975 123.055 192.941 123.035L191.173 122.03C191.118 121.999 191.051 121.994 190.992 122.018L189.102 122.767C188.994 122.81 188.872 122.758 188.83 122.65C188.815 122.614 188.811 122.574 188.818 122.536L189.216 120.337L187.886 118.583C187.816 118.491 187.835 118.36 187.927 118.291C187.955 118.269 187.989 118.255 188.024 118.25L190.141 117.953L191.313 116.098C191.375 116 191.504 115.971 191.602 116.032C191.637 116.054 191.664 116.086 191.681 116.123Z" fill="#001933"/>
<path d="M398.214 65.8589C399.021 65.8014 399.722 66.408 399.779 67.2138C399.837 68.0196 399.229 68.7194 398.422 68.7769C392.639 69.1887 388.098 71.4254 386.08 76.9583C385.959 77.2913 385.858 77.6128 385.777 77.9183L385.722 78.1282L385.811 77.9439C388.351 72.7668 393.25 69.1696 398.928 68.2567L399.299 68.201C400.101 68.0893 400.841 68.6473 400.953 69.4474C401.065 70.2474 400.506 70.9866 399.704 71.0982C394.43 71.8331 389.918 75.332 387.95 80.3504L387.822 80.6872C386.887 83.2522 384.642 84.4822 383.197 82.2871C382.316 80.9482 382.374 78.5704 383.326 75.9577C385.743 69.3307 391.288 66.3521 398.214 65.8589Z" fill="#007BFF"/>
<path d="M391.539 54.9609C392.346 54.9034 393.047 55.51 393.104 56.3158C393.162 57.1216 392.554 57.8214 391.747 57.8789C382.549 58.5339 374.483 64.4965 371.273 73.2978C370.322 75.9068 370.145 78.1375 370.486 79.2672L370.527 79.3932L370.592 79.2999C370.756 79.0522 370.94 78.6964 371.121 78.235L371.198 78.0308C374.588 68.7343 382.807 62.2237 392.447 60.8806C393.249 60.7689 393.989 61.3269 394.101 62.127C394.213 62.9271 393.654 63.6662 392.852 63.7779C384.419 64.9528 377.211 70.5706 374.106 78.62L373.952 79.0314C372.695 82.4788 369.976 83.9681 368.238 81.3283C367.048 79.5194 367.131 76.1045 368.519 72.2973C372.128 62.4019 381.197 55.6973 391.539 54.9609Z" fill="#007BFF"/>
<path d="M382.543 40.4313C383.35 40.3738 384.051 40.9804 384.109 41.7862C384.166 42.5919 383.559 43.2917 382.751 43.3492C369.632 44.2835 358.127 52.788 353.55 65.3412C351.992 69.6133 351.862 73.2342 352.713 74.7393L352.791 74.8666C352.917 75.0579 352.874 75.0635 352.907 75.0371L352.926 75.0243C353.357 74.7882 353.927 73.9836 354.446 72.6492L354.549 72.3752C359.225 59.5538 370.56 50.575 383.856 48.7226C384.657 48.6109 385.398 49.169 385.509 49.969C385.621 50.7691 385.062 51.5082 384.261 51.6199C372.188 53.3019 361.875 61.3685 357.474 72.9181L357.304 73.3758C355.677 77.8362 352.415 79.6232 350.341 76.473C348.795 74.1244 348.908 69.5192 350.796 64.3406C355.772 50.6934 368.28 41.4469 382.543 40.4313Z" fill="#007BFF"/>
<path d="M366.484 26.7768C367.279 26.6215 368.048 27.1383 368.204 27.9311C368.36 28.7238 367.842 29.4923 367.048 29.6476C355.17 31.9693 345.619 41.0242 342.849 53.0013C341.911 57.0548 342.195 60.3507 343.115 61.6081L343.237 61.7658L343.247 61.7877L343.264 61.7745C343.593 61.4777 343.978 60.7196 344.277 59.5443L344.34 59.2861C347.189 46.968 356.597 37.433 368.615 34.2309C369.397 34.0225 370.2 34.4863 370.409 35.2668C370.618 36.0473 370.153 36.8489 369.371 37.0573C358.544 39.9422 350.037 48.4507 347.307 59.4768L347.195 59.9442C346.19 64.2886 343.305 66.3625 340.968 63.6125C339.258 61.601 338.839 57.333 339.993 52.3432C343.026 39.2316 353.483 29.3183 366.484 26.7768Z" fill="#007BFF"/>
<path d="M204.042 207.172L204.888 206.865C212.883 204.001 219.629 202.738 221.343 204.478C222.846 206.004 224.185 208.768 225.454 212.822C225.696 213.593 225.265 214.413 224.493 214.654C223.721 214.895 222.899 214.465 222.657 213.694C221.559 210.189 220.439 207.829 219.379 206.663L219.336 206.617L219.298 206.619C219.097 206.578 218.797 206.558 218.413 206.565C217.569 206.581 216.415 206.73 215.036 207.002C212.2 207.563 208.616 208.606 205.056 209.917C199.105 212.108 194.147 214.683 191.408 217.009C190.402 217.863 188.566 215.484 190.333 214.122C193.512 211.67 198.333 209.274 204.042 207.172Z" fill="#007BFF"/>
<path d="M200.019 179.541C200.019 184.42 205.188 189.703 206.288 190.003C207.068 190.216 193.619 198.963 193.619 198.963C188.76 199.601 185.906 195.501 185.906 189.394C185.906 188.586 200.019 178.733 200.019 179.541Z" fill="#007BFF"/>
<path fill-rule="evenodd" clip-rule="evenodd" d="M184.16 182.104C185.862 181.773 187.018 180.358 186.743 178.942C186.467 177.526 184.863 176.645 183.161 176.976C181.459 177.306 180.302 178.722 180.578 180.138C180.854 181.554 182.457 182.434 184.16 182.104Z" fill="#001933"/>
<path d="M357.621 18.6665C358.419 18.5278 359.178 19.0606 359.317 19.8565C359.455 20.6523 358.922 21.4098 358.124 21.5484C354.332 22.2078 350.508 24.4988 346.566 28.1429C341.446 32.8747 338.065 39.4131 336.2 48.1308C334.698 55.1544 336.084 63.9306 340.011 71.6458C344.478 80.4234 352.381 82.5928 361.595 84.2726C371.054 85.9972 373.668 84.9321 382.606 81.7604L383.429 81.4622C384.651 81.0002 390.362 78.7697 391.735 78.3552C394.625 77.4829 396.596 77.5559 398.026 79.0762C398.579 79.6653 398.55 80.5909 397.96 81.1437C397.407 81.662 396.557 81.6685 395.997 81.182L395.889 81.0781C395.467 80.6296 394.595 80.5776 392.84 81.0798L392.584 81.1553C391.263 81.554 385.069 83.9804 384.267 84.2726C374.613 87.7901 371.338 89.0228 361.068 87.1504C350.891 85.295 342.256 82.5172 337.398 72.9707C333.175 64.674 331.687 55.2179 333.334 47.5201C335.324 38.2159 339.009 31.1402 344.574 25.9964C348.931 21.9699 353.271 19.4228 357.621 18.6665Z" fill="#007BFF"/>
<path d="M426.559 135.051C418.205 134.625 411.626 141.065 411.557 149.71C411.499 156.994 415.609 162.992 421.256 164.154C423.539 164.623 427.923 164.058 431.174 162.238C436.112 159.595 439.886 154.162 440.362 149.532C441.138 141.989 435.02 135.483 426.559 135.051Z" fill="#007BFF"/>
<path d="M275.179 133.529C277.848 138.908 281.991 151.333 280.199 151.273C275.221 151.107 268.56 143.471 263.902 133.145L263.534 132.315C259.466 122.94 257.031 117.05 259.859 115.922C262.785 114.755 269.672 122.426 275.179 133.529Z" fill="#007BFF"/>
<path fill-rule="evenodd" clip-rule="evenodd" d="M259.859 115.806C262.785 114.639 269.773 121.959 275.281 133.062C277.949 138.441 279.759 143.602 280.232 147.302C280.232 147.302 271.22 128.349 265.723 121.407C263.612 118.741 259.859 115.806 259.859 115.806Z" fill="#003166"/>
<path d="M258.323 163.536C258.538 162.757 259.345 162.3 260.125 162.514C260.905 162.728 261.364 163.533 261.149 164.312C260.873 165.314 256.992 167.942 248.522 173.153L243.176 176.419C232.623 182.831 225.581 186.935 224.7 186.935C218.874 186.935 213.623 181.448 209.79 172.791C206.442 165.232 204.705 156.234 205.489 150.338C205.734 148.497 211.877 143.733 221.362 137.35L222.721 136.442C231.112 130.862 238.284 126.724 240.879 126.201C241.673 126.041 242.446 126.554 242.606 127.346C242.706 127.841 219.576 147.301 217.317 160.217C215.787 168.963 221.57 183.868 224.441 184.003L224.7 184.009C224.467 184.009 224.542 183.955 224.569 183.94L224.834 183.804C225.028 183.702 225.259 183.577 225.525 183.431L226.745 182.751C227.211 182.487 227.731 182.19 228.3 181.862L229.754 181.019C232.531 179.401 235.995 177.34 239.529 175.206L242.89 173.167C246.977 170.674 250.669 168.376 253.445 166.592L254.874 165.664C255.76 165.085 256.508 164.583 257.106 164.167L257.323 164.015C257.653 163.783 257.927 163.583 258.141 163.42C258.141 163.42 258.382 163.324 258.323 163.536Z" fill="#007BFF"/>
<path fill-rule="evenodd" clip-rule="evenodd" d="M261.229 134.346C257.688 126.498 256.123 119.306 257.309 114.951C255.166 115.631 252.488 116.853 249.829 118.375C246.295 120.399 243.49 122.661 243.424 123.152C242.741 128.285 245.363 138.272 249.72 147.175C254.381 156.699 259.926 162.816 264.218 162.816C264.629 162.816 265.805 162.574 266.984 162.162C268.661 161.578 270.232 160.726 271.519 159.61C272.158 159.055 272.821 158.428 273.512 157.728L274.346 156.868C274.837 156.349 275.345 155.791 276.137 154.905L277.239 153.676L277.287 153.624C271.765 151.61 265.99 144.511 261.67 135.305L261.229 134.346ZM240.519 122.767C240.975 119.343 253.818 111.941 259.68 111.462C259.926 111.308 260.188 111.175 260.468 111.063C265.545 109.039 273.28 117.712 279.485 129.915L279.91 130.762C282.711 136.408 284.621 141.856 285.142 145.93C285.764 150.8 284.352 154.028 280.648 154.194C280.549 154.578 280.298 154.899 279.965 155.092L279.908 155.121L279.763 155.265C279.618 155.414 279.447 155.599 279.183 155.892L277.362 157.921C276.701 158.648 276.233 159.141 275.599 159.782C274.857 160.533 274.142 161.211 273.441 161.818C270.604 164.278 266.409 165.741 264.218 165.741C263.056 165.741 261.881 165.471 260.703 164.956C259.445 166.266 255.573 168.814 248.522 173.152L243.177 176.418C232.623 182.83 225.581 186.934 224.701 186.934C222.705 186.934 220.777 186.29 218.951 185.096C218.934 185.108 218.916 185.119 218.899 185.131L218.153 185.61C215.557 187.29 211.405 190.084 207.554 192.676L207.554 192.676L207.313 192.838C207.812 196.39 208.945 199.952 210.718 203.526C217.012 201.583 221.997 200.927 223.436 202.388C224.938 203.914 226.278 206.678 227.547 210.732C227.789 211.503 227.358 212.323 226.586 212.564C225.813 212.805 224.991 212.376 224.75 211.605C223.652 208.099 222.532 205.739 221.472 204.573L221.429 204.527L221.391 204.529C221.19 204.488 220.889 204.468 220.506 204.475C219.662 204.491 218.508 204.64 217.129 204.913C214.293 205.473 210.709 206.517 207.149 207.827C199.012 210.823 192.732 214.536 191.442 217.349C191.064 218.172 191.112 219.377 191.564 221.223L191.648 221.555C191.716 221.816 191.787 222.075 191.879 222.403L192.408 224.273C192.43 224.354 192.452 224.438 192.48 224.543C192.683 225.325 192.213 226.124 191.429 226.327C190.646 226.53 189.846 226.06 189.643 225.278L189.383 224.332L188.949 222.806C188.9 222.625 188.855 222.458 188.811 222.289C188.124 219.646 188.014 217.794 188.777 216.131C190.071 213.311 194.119 210.389 199.755 207.732L198.529 204.571L198.226 203.772C197.762 202.526 197.222 200.836 196.891 199.603C192.487 201.972 189.421 202.368 186.349 200.698L186.11 200.564C185.502 200.212 184.917 199.808 184.326 199.315L167.151 209.727C167.31 210.07 167.472 210.417 167.635 210.766C168.405 212.415 167.046 213.583 164.962 214.492L164.737 214.588C162.945 215.328 161.328 215.498 160.365 214.444C156.371 210.068 152.144 199.602 154.418 197.208C154.855 196.748 156.008 196.064 158.188 194.922L158.364 194.831C158.408 194.801 158.454 194.772 158.502 194.747L174.557 186.065C174.593 186.045 174.631 186.026 174.669 186.01C173.678 184.375 172.592 182.554 171.391 180.522C171.197 180.212 171.131 179.846 171.191 179.499C171.22 179.336 171.275 179.178 171.358 179.031C171.435 178.895 171.534 178.77 171.654 178.662C174.954 175.54 179.45 172.284 185.088 168.778L185.772 168.355C188.214 166.852 193.166 164.033 197.373 161.638L197.373 161.638L197.373 161.638L197.374 161.637L197.376 161.636C200.638 159.779 203.452 158.177 204.3 157.642L204.505 157.506C204.811 157.282 205.176 157.194 205.526 157.232C205.247 154.695 205.223 152.337 205.49 150.337C205.735 148.496 211.877 143.732 221.362 137.349L222.721 136.441C230.671 131.154 237.527 127.162 240.433 126.312C240.355 125.003 240.38 123.81 240.519 122.767ZM240.754 129.278C237.907 130.317 230.779 134.541 223.001 139.775L221.755 140.618C218.255 143.002 215.021 145.327 212.578 147.221L211.9 147.752C210.81 148.614 209.928 149.357 209.288 149.953C208.968 150.252 208.715 150.508 208.536 150.711L208.412 150.858C208.384 150.886 208.377 150.875 208.387 150.783L208.395 150.722C208.392 150.745 208.389 150.766 208.387 150.783L208.349 151.097C206.94 163.441 215.882 183.6 224.441 184.002L224.643 184.007C224.659 184.008 224.679 184.008 224.701 184.008L224.643 184.007C224.481 183.999 224.545 183.953 224.57 183.939L224.834 183.803C225.028 183.701 225.259 183.576 225.526 183.431L226.745 182.75C227.211 182.486 227.731 182.189 228.3 181.861L229.754 181.018C232.531 179.4 235.995 177.339 239.529 175.205L242.89 173.166C246.977 170.673 250.67 168.375 253.445 166.591L254.874 165.663C255.76 165.084 256.508 164.582 257.106 164.166L257.323 164.014C257.64 163.792 257.905 163.599 258.115 163.439C254.34 160.674 250.624 155.568 247.324 148.94L247.087 148.459C243.907 141.961 241.607 134.924 240.754 129.278ZM205.931 160.068C204.873 160.732 201.754 162.51 198.283 164.488C194.171 166.832 189.565 169.457 187.31 170.845C181.984 174.122 177.689 177.161 174.5 180.021L175.556 181.799C180.178 189.539 182.854 193.611 185.006 195.912C184.291 194.219 183.921 192.071 183.921 189.376C183.921 189.252 183.936 189.131 183.965 189.016C183.823 188.456 184.024 187.841 184.519 187.478L185.517 186.737C186.113 186.288 187.091 185.542 188.204 184.693L188.214 184.685L188.217 184.682L188.221 184.68L188.221 184.68L188.221 184.68C190.672 182.81 193.768 180.448 194.873 179.658C198.349 177.173 200.91 175.779 203.242 175.295C204.357 175.064 205.222 175.722 205.473 176.741L205.514 176.926C205.572 177.229 205.583 177.528 205.582 178.179L205.581 178.385C205.569 180.819 205.811 182.224 206.843 183.846C207.55 184.957 208.589 185.97 210.035 186.877C210.187 186.972 210.315 187.09 210.417 187.224C212.752 185.659 214.938 184.204 216.551 183.16C214.009 180.704 211.72 177.149 209.79 172.79C207.992 168.73 206.658 164.255 205.931 160.068ZM282.235 146.301C281.762 142.6 279.952 137.44 277.284 132.06C271.776 120.958 264.482 112.613 261.556 113.78C258.727 114.908 259.466 122.939 263.534 132.314L263.901 133.144C268.56 143.47 275.22 151.107 280.198 151.273C281.991 151.332 282.691 149.871 282.235 146.301ZM176.183 188.483C178.725 192.585 180.582 195.295 182.2 197.181L165.918 207.052C164.25 203.402 162.759 200.005 161.311 196.555L175.953 188.637C176.036 188.592 176.112 188.54 176.183 188.483ZM207.907 204.449C206.327 201.187 205.236 197.916 204.636 194.638C202.532 196.051 200.702 197.275 199.525 198.038C199.726 199.047 200.476 201.443 201.121 203.146L202.324 206.236L202.438 206.538C203.62 206.04 204.855 205.554 206.135 205.083L206.981 204.775C207.292 204.664 207.601 204.555 207.907 204.449ZM207.855 188.945C206.354 187.906 205.203 186.725 204.37 185.415C203.02 183.295 202.666 181.485 202.65 178.75L202.65 178.505L202.442 178.582C200.956 179.158 199.183 180.199 196.956 181.77L196.58 182.036C195.519 182.795 192.5 185.098 190.065 186.955C188.712 187.987 187.538 188.882 186.982 189.298L186.852 189.394C186.855 194.26 188.071 196.493 190.335 197.576L190.516 197.659C191.055 197.898 191.44 198.017 192.54 198.318L192.55 198.321L192.57 198.326L192.586 198.331L192.605 198.337C193.746 197.954 195.054 197.315 196.616 196.4L197.198 196.052C198.489 195.249 201.952 192.918 205.761 190.354L205.789 190.335L205.832 190.306C206.499 189.857 207.177 189.401 207.855 188.945ZM158.721 197.953L158.945 198.487C160.502 202.17 162.119 205.818 163.955 209.797L164.669 211.34C164.435 211.497 164.127 211.664 163.789 211.811C163.303 212.023 162.81 212.172 162.439 212.221L162.321 212.233L162.142 212.02C160.755 210.315 159.145 207.419 157.981 204.538C157.362 203.004 156.92 201.597 156.721 200.516C156.64 200.076 156.603 199.706 156.606 199.425L156.615 199.24C156.617 199.195 156.618 199.172 156.606 199.168L156.65 199.139C156.898 198.968 157.531 198.599 158.471 198.088L158.721 197.953ZM178.935 194.731C178.369 194.155 177.441 194.146 176.863 194.711C175.847 195.706 174.423 196.633 171.935 198.012L169.404 199.414C168.735 199.794 168.188 200.122 167.692 200.443C167.277 200.711 166.907 200.97 166.574 201.227C165.934 201.721 165.816 202.64 166.311 203.279C166.805 203.918 167.726 204.036 168.366 203.542C168.63 203.338 168.936 203.124 169.287 202.897C169.61 202.688 169.966 202.47 170.378 202.23L171.185 201.769L173.756 200.347C176.227 198.963 177.715 197.975 178.915 196.8C179.493 196.234 179.502 195.308 178.935 194.731Z" fill="#001933"/>
<path d="M146.156 343.27C153.484 384.051 180.95 414.709 215.998 421.937C222.431 423.264 233.571 423.438 245.107 421.948C259.969 420.028 274.434 415.624 287.155 408.486C322.1 389.739 348.617 351.479 352.054 317.987C355.073 288.567 343.813 261.389 323.429 242C323.429 242 259.395 273.393 227.961 291.237C200.608 306.764 146.156 343.27 146.156 343.27Z" fill="#007BFF"/>
<path d="M295.283 221.658C282.148 215.19 265.692 210.08 249.555 209.256C190.373 206.236 143.827 253.427 143.342 314.295C143.342 314.295 209.395 272.3 243.712 252.038C260.784 241.957 295.283 221.658 295.283 221.658Z" fill="#007BFF"/>
<path fill-rule="evenodd" clip-rule="evenodd" d="M417.014 190.637C416.815 200.806 406.033 217.733 388.703 236.887C376.148 250.762 361.54 264.174 349.291 273.211L348.529 273.769L349.035 276.015C352.013 289.045 355.902 303.21 354.433 317.495C350.867 352.165 323.698 391.281 287.794 410.499C274.7 417.832 259.815 422.354 244.547 424.322L243.092 424.501C231.707 425.84 220.813 425.618 214.156 424.248C188.315 418.93 166.437 400.9 153.211 374.805C153.166 374.718 153.131 374.628 153.106 374.536C151.365 375.528 149.022 376.636 147.952 376.998L145.021 377.987C113.429 388.593 82.1107 397.466 69.3165 391.928C64.4459 389.82 62.7812 385.765 64.8181 380.318C66.7976 375.024 72.2863 368.203 81.4949 359.714L82.0008 359.249C90.7267 351.265 110.104 336.676 140.134 315.481L140.142 315.092C141.607 252.29 190.48 204.415 251.911 208.323C270.701 209.518 285.665 216.183 293.139 220.276L296.426 218.515C327.253 202.062 351.988 190.497 370.861 183.575C401.897 172.191 417.246 177.513 417.014 190.637ZM371.871 190.321C337.167 203.05 282.321 231.679 205.958 277.73L203.637 279.131C144.175 315.06 104.801 342.356 83.9813 361.406L82.9551 362.352L81.9822 363.262C66.3532 378.001 63.583 386.258 70.4825 389.245C82.2934 394.357 114.011 385.738 145.072 375.569L147.952 374.621C150.722 373.705 152.559 373.179 153.696 372.937C153.745 372.901 153.8 372.869 153.857 372.84C154.245 372.644 154.68 372.637 155.056 372.785C155.137 372.8 155.19 372.825 155.218 372.86C155.471 372.997 155.686 373.209 155.826 373.485C168.666 398.817 189.824 414.254 214.747 419.383C221.217 420.714 232.132 420.909 243.49 419.507L244.172 419.421C259.088 417.498 273.616 415.084 286.385 407.935C321.47 389.154 348.053 350.883 351.517 317.196C352.998 302.799 351.108 288.667 346.085 275.514C345.67 275.804 345.259 276.087 344.851 276.365C344.08 276.89 344.368 276.04 345.714 273.814C345.786 273.524 345.947 273.26 346.177 273.061L346.592 272.405C346.737 272.177 346.89 271.939 347.05 271.691L348.787 270.229C365.157 256.409 377.737 244.642 386.527 234.926L387.531 233.812C403.795 215.644 413.906 199.597 414.072 190.583C414.255 180.695 401.186 179.569 371.871 190.321ZM224.72 375.301C228.652 387.296 222.704 395.011 212.233 395.41C202.558 395.778 193.748 389.693 194.197 381.046C194.585 373.573 199.712 365.584 206.023 362.65C213.656 359.102 220.82 363.406 224.72 375.301ZM207.57 365.964C202.519 368.312 198.175 375.081 197.855 381.235C197.537 387.363 204.324 392.051 212.093 391.755C220.215 391.446 224.385 386.038 221.238 376.438C217.961 366.443 212.979 363.45 207.57 365.964ZM304.662 350.859C309.679 360.321 308.365 369.617 300.651 373.784L300.435 373.897L300.323 374.009C289.978 384.233 277.054 385.474 268.627 378.063L268.338 377.804C258.631 368.928 260.943 353.678 276.39 341.723C286.331 334.03 298.474 339.189 304.662 350.859ZM278.314 344.2C264.291 355.053 262.32 368.05 270.459 375.492C276.297 380.83 284.923 381.125 292.978 375.945L293.136 375.84L293.077 375.828C292.519 375.681 292.072 375.232 291.945 374.646L291.92 374.497C291.818 373.638 292.433 372.859 293.294 372.757C295.264 372.524 296.973 372.049 298.423 371.37L298.621 371.274L298.861 371.025C299.806 370.032 300.729 368.952 301.624 367.783L301.921 367.39C302.256 366.941 302.787 366.723 303.308 366.765L303.348 366.769L303.369 366.73C305.25 363.019 304.804 357.992 302.051 352.64L301.886 352.325C296.506 342.177 286.449 337.904 278.314 344.2ZM371.697 231.725C370.891 234.586 368.434 238.513 364.669 243.164C358.106 251.271 348.247 260.707 339.629 267.16L341.541 265.061C341.522 265.045 341.506 265.022 341.492 264.997L340.832 263.787C336.52 255.93 331.715 248.18 323.951 241.862C303.852 250.133 280.808 261.44 259.812 273.261L252.93 277.144C202.251 305.799 175.587 322.955 147.074 344.044C148.151 348.881 149.507 353.602 151.131 358.176C151.386 358.894 148.056 361.58 147.446 361.249C141.758 365.053 132.851 367.816 127.78 367.959C122.838 368.099 119.983 366.102 121.454 362.121C122.685 358.79 127.32 354.039 135.661 347.673L136.612 346.953L138.535 345.511C169.928 322.052 201.006 303.014 258.372 270.714L260.773 269.369C300.118 247.447 345.679 227.698 366.548 225.876C370.838 225.501 372.784 227.871 371.697 231.725ZM143.257 346.882L136.679 351.836C130.812 356.277 126.581 359.561 124.296 361.668L124.129 361.824C121.339 364.436 124.497 365.126 127.697 365.035C132.546 364.898 139.973 361.228 146.26 357.888C145.098 354.295 144.096 350.622 143.257 346.882ZM246.141 331C246.926 331.198 247.4 331.994 247.201 332.777C247.002 333.56 246.204 334.034 245.42 333.835C241.479 332.836 239.151 333.22 238.396 334.279C237.895 334.982 238.173 336.18 239.11 336.945C239.842 337.543 240.817 337.828 241.487 337.683C242.071 337.556 242.397 337.107 242.397 335.984C242.397 335.176 243.053 334.521 243.863 334.521C244.672 334.521 245.328 335.176 245.328 335.984C245.328 338.426 244.104 340.108 242.111 340.541C240.508 340.889 238.641 340.342 237.254 339.209C235.205 337.536 234.536 334.648 236.008 332.583C237.622 330.319 241.159 329.737 246.141 331ZM181.77 325.63C184.03 326.306 185.003 328.038 185.31 330.637L185.341 330.918L185.378 331.346C185.383 331.417 185.388 331.49 185.393 331.569L185.47 333.053L185.493 333.388C185.505 333.535 185.518 333.655 185.533 333.762L185.572 333.986L185.596 334.084L185.637 334.12C186.089 334.562 186.209 335.255 185.917 335.828L185.842 335.957C185.403 336.636 184.496 336.831 183.816 336.394C182.88 335.791 182.668 335.171 182.554 333.392L182.461 331.651C182.45 331.493 182.439 331.357 182.424 331.203C182.257 329.499 181.841 328.705 180.929 328.432C178.369 327.667 176.9 328.448 176.435 330.156C176.02 331.678 176.62 333.277 177.67 333.721L177.936 333.82C178.623 334.113 178.986 334.884 178.755 335.609C178.509 336.378 177.685 336.803 176.914 336.558C174.123 335.67 172.797 332.361 173.607 329.389C174.511 326.071 177.653 324.399 181.77 325.63ZM287.495 303.232C291.553 308.927 290.798 316.172 284.287 319.451C283.565 319.815 282.684 319.525 282.319 318.804C281.954 318.083 282.245 317.203 282.967 316.839C287.681 314.465 288.219 309.296 285.106 304.928C282.082 300.684 277.873 300.217 274.98 304.803C271.913 309.664 272.136 312.518 274.344 313.803C276.097 314.823 278.919 314.609 279.695 313.775L279.77 313.683C280.24 313.025 281.155 312.871 281.814 313.34C282.473 313.808 282.627 314.722 282.158 315.38C280.529 317.664 275.88 318.084 272.867 316.33C269.011 314.086 268.641 309.36 272.5 303.244C276.631 296.696 283.369 297.443 287.495 303.232ZM226.738 294.846C227.5 294.846 228.126 295.426 228.197 296.168L228.203 296.308C228.203 296.566 228.443 296.854 229.303 297.483L230.117 298.066C231.004 298.712 231.432 299.112 231.836 299.75C232.76 301.208 233.284 302.693 233.284 304.439C233.284 308.909 226.555 314.989 219.212 317.695C210.408 320.938 203.195 318.533 201.232 309.516C201.061 308.727 201.562 307.948 202.353 307.776C203.144 307.605 203.924 308.105 204.096 308.895C205.62 315.893 210.879 317.646 218.197 314.95C224.516 312.622 230.353 307.348 230.353 304.439C230.353 303.314 230.01 302.341 229.359 301.314L229.271 301.19C229.121 301.002 228.888 300.799 228.468 300.488L227.501 299.792C225.895 298.61 225.273 297.812 225.273 296.308C225.273 295.501 225.929 294.846 226.738 294.846ZM233.617 213.773L232.691 213.877C182.686 219.88 145.173 259.801 143.127 313.372L148.493 309.604C163.893 298.814 181.768 286.489 202.119 272.629L206.085 270.236C217.924 263.107 229.243 256.398 240.049 250.104C239.851 249.759 239.796 249.335 239.93 248.928C240.685 246.626 241.384 245.079 242.663 243.53C246.667 238.682 252.152 236.314 256.039 239.358C256.421 239.658 256.614 240.109 256.598 240.56L260.051 238.594C270.922 232.417 281.208 226.712 290.917 221.472L287.125 220.395C281.501 218.815 274.505 216.941 267.537 215.499C267.6 220.127 264.129 223.824 258.362 226.366C253.46 228.527 247.071 229.69 242.529 229.419C234.031 228.914 229.248 221.474 233.617 213.773ZM321.335 277.295C324.921 287.074 321.962 295.967 313.008 295.909C300.25 295.826 287.792 284.707 289.806 274.746C290.705 270.302 294.051 266.372 299.871 264.41C309.165 261.277 317.684 267.34 321.335 277.295ZM300.809 267.182C295.999 268.803 293.375 271.886 292.679 275.325C291.081 283.231 301.927 292.911 313.027 292.984C319.385 293.025 321.572 286.453 318.583 278.301C315.419 269.674 308.347 264.641 300.809 267.182ZM193.054 232.555L193.159 232.706L193.864 233.826C194.209 234.394 194.519 234.952 194.813 235.553C198.059 242.176 197.975 250.859 192.482 262.912C189.994 268.372 183.656 275.711 178.12 280.089C171.052 285.681 165.775 286.951 159.476 286.261L157.607 286.041L157.379 286.021C157.254 286.011 157.174 286.011 157.086 286.014L156.958 286.019C156.861 286.024 156.827 286.019 156.821 286.006L156.821 285.996L156.774 286.072C156.349 286.68 155.523 286.88 154.86 286.512C154.153 286.119 153.899 285.229 154.292 284.523C154.819 283.578 155.699 283.15 156.82 283.097C157.116 283.083 157.43 283.093 157.804 283.124L158.241 283.167L159.45 283.313C165.187 284.007 169.752 282.977 176.3 277.797C181.499 273.684 187.542 266.688 189.815 261.701C194.955 250.422 195.03 242.653 192.18 236.838C191.991 236.451 191.793 236.083 191.578 235.714L191.272 235.202L190.657 234.232C190.227 233.548 190.434 232.645 191.12 232.216C191.763 231.814 192.598 231.97 193.054 232.555ZM366.804 228.79C357.435 229.608 342.75 234.227 325.82 241.098L326.314 241.535C331.026 245.755 340.533 255.76 343.508 262.897L346.472 259.617C353.785 251.497 359.091 245.401 362.39 241.326L363.058 240.49C366.211 236.496 368.248 233.159 368.876 230.933L368.965 230.595C369.356 228.987 368.903 228.607 366.804 228.79ZM226.487 233.541C230.134 235.301 231.615 239.219 229.215 242.772C228.763 243.442 227.852 243.619 227.181 243.167C226.51 242.715 226.333 241.806 226.785 241.137C228.105 239.182 227.36 237.212 225.211 236.175C222.949 235.083 220.469 235.711 219.19 238.095C218.011 240.291 217.93 243.265 218.871 245.213C219.697 246.923 220.9 247.25 222.736 245.871C223.382 245.385 224.301 245.515 224.788 246.16C225.274 246.806 225.145 247.723 224.498 248.208C221.154 250.721 217.844 249.82 216.231 246.484C214.88 243.688 214.988 239.728 216.606 236.713C218.671 232.866 222.88 231.8 226.487 233.541ZM244.925 245.39C244.241 246.218 243.753 247.091 243.301 248.211C247.077 246.022 250.789 243.882 254.437 241.794L254.331 241.732L254.229 241.659C251.992 239.906 248.047 241.609 244.925 245.39ZM238.675 213.326L237.393 213.415L237.308 213.523C232.242 219.913 234.193 225.1 241.111 225.837C246.08 226.365 259.269 222.686 260.816 221.395C262.323 220.137 264.229 217.244 264.523 214.901C260.046 214.061 255.668 213.443 251.762 213.244C247.77 213.04 243.834 213.045 239.963 213.25L238.675 213.326Z" fill="#001933"/>
<path d="M370.983 190.682C402.019 179.298 401.308 182.676 371.994 193.428C337.289 206.157 206.289 285.918 206.289 285.918C146.828 321.847 142.379 316.301 200.014 281.339L203.566 279.188C204.236 278.783 269.853 237.447 316.741 215.331C322.017 212.843 367.449 191.978 370.983 190.682Z" fill="#007BFF"/>
<path fill-rule="evenodd" clip-rule="evenodd" d="M424.572 134.011C414.954 133.52 407.448 140.98 407.37 150.74C407.305 158.918 412.005 165.861 418.739 167.247C420.513 167.612 425.631 167.612 430.07 165.126L430.437 164.924C436.034 161.761 439.841 155.743 440.35 150.792C441.253 142.015 434.189 134.502 424.572 134.011ZM409.463 150.757C409.464 150.694 409.465 150.631 409.466 150.568C409.526 150.549 409.584 150.524 409.642 150.493C417.182 146.439 421.837 143.349 423.695 141.118C424.922 139.645 425.521 137.984 425.472 136.179C426.738 136.319 427.945 136.596 429.076 136.993C429.07 137.047 429.067 137.103 429.069 137.159C429.161 139.757 428.467 141.833 426.992 143.45C425.297 145.308 423.244 147.077 420.909 148.744C418.413 150.527 415.733 152.101 413.052 153.449C412.427 153.763 411.832 154.05 411.273 154.309L410.464 154.675C410.348 154.726 410.241 154.773 410.142 154.816L409.901 154.917C409.605 153.6 409.452 152.204 409.463 150.757ZM410.49 156.937C411.152 158.772 412.113 160.398 413.301 161.722L413.927 161.363C423.766 155.677 429.875 151.21 432.187 148.059C434.524 144.873 435.358 142.427 434.835 140.763C434.822 140.724 434.813 140.685 434.805 140.646C433.775 139.566 432.549 138.639 431.167 137.907C431.109 140.668 430.234 143 428.54 144.857C426.738 146.833 424.575 148.695 422.127 150.444C419.536 152.295 416.765 153.922 413.994 155.315C413.186 155.722 412.425 156.084 411.725 156.401L410.909 156.761L410.49 156.937ZM418.326 164.99C417.089 164.621 415.938 164.016 414.901 163.214C425.031 157.366 431.334 152.759 433.876 149.294C435.453 147.144 436.461 145.211 436.871 143.486C437.38 144.436 437.766 145.448 438.014 146.506C437.961 146.614 437.925 146.733 437.912 146.859C437.657 149.302 436.396 151.726 434.089 154.141C431.876 156.458 427.099 159.801 419.8 164.124L418.326 164.99ZM421.864 165.328C424.111 165.186 426.86 164.528 429.08 163.285C433.211 161.074 436.527 156.91 437.779 152.898C437.174 153.804 436.448 154.699 435.605 155.583C433.332 157.962 428.763 161.197 421.864 165.328ZM410.072 147.881L409.7 148.083C410.888 141.179 416.414 136.225 423.373 136.081C423.447 137.438 423.025 138.655 422.085 139.782C420.567 141.605 416.538 144.333 410.072 147.881Z" fill="#001933"/>
<path fill-rule="evenodd" clip-rule="evenodd" d="M500.139 113.99C500.334 114.012 500.47 114.189 500.448 114.382C500.447 114.667 500.263 114.822 500.016 114.922C499.793 115.011 499.438 114.977 499.231 115.005C496.964 115.179 495.182 113.515 494.398 111.369C493.645 109.307 493.845 106.842 495.213 105.322C495.37 105.143 495.642 105.125 495.822 105.282C496.001 105.439 497.021 105.712 496.864 105.891C495.737 107.204 494.974 108.001 496.037 111.118C497.101 114.235 499.993 113.973 500.139 113.99Z" fill="#003166"/>
<path fill-rule="evenodd" clip-rule="evenodd" d="M139.213 136.308C138.618 135.899 137.803 136.05 137.394 136.645C136.985 137.24 137.136 138.053 137.732 138.461C138.386 138.909 138.965 139.323 139.475 139.708C138.925 140.144 138.376 140.645 137.806 141.214L136.649 142.387C136.14 142.899 136.144 143.726 136.657 144.234C137.17 144.742 137.998 144.738 138.507 144.226L139.895 142.825C140.46 142.276 140.99 141.817 141.522 141.435C142.706 142.606 143.066 143.464 143.085 144.318L143.085 144.536L143.092 144.67C143.159 145.329 143.716 145.842 144.394 145.842C145.116 145.842 145.702 145.258 145.702 144.536L145.702 144.28C145.678 142.949 145.207 141.684 143.941 140.237C144.777 139.989 145.72 139.849 146.863 139.79C147.584 139.752 148.139 139.138 148.101 138.418C148.063 137.697 147.448 137.144 146.726 137.181C144.742 137.285 143.2 137.615 141.826 138.243C141.252 137.775 140.602 137.283 139.868 136.764L139.213 136.308Z" fill="#001933"/>
<path fill-rule="evenodd" clip-rule="evenodd" d="M335.265 422.477L336.173 422.481C341.246 422.528 345.21 422.984 352.675 424.18C353.532 424.318 354.114 425.122 353.977 425.976C353.839 426.831 353.034 427.412 352.178 427.275L349.731 426.891C343.553 425.944 339.994 425.611 335.265 425.611C318.856 425.611 308.382 435.863 310.154 451.588C310.251 452.448 309.631 453.223 308.77 453.32C307.908 453.417 307.131 452.798 307.034 451.938C305.04 434.253 317.073 422.477 335.265 422.477ZM347.973 428.805L347.82 428.67C347.672 428.544 347.444 428.561 347.32 428.71C347.19 428.858 347.21 429.082 347.358 429.209L347.516 429.342C347.664 429.469 347.886 429.452 348.016 429.304C348.14 429.155 348.126 428.931 347.973 428.805ZM319.521 432.082C318.958 431.63 318.134 431.72 317.681 432.282C315.854 434.552 314.522 436.764 313.691 438.923C312.882 441.023 312.607 444.552 312.817 449.598L312.867 450.663C312.905 451.383 313.521 451.936 314.242 451.899C314.964 451.861 315.518 451.246 315.48 450.526C315.202 445.255 315.439 441.664 316.133 439.86C316.86 437.971 318.054 435.988 319.721 433.918C320.174 433.356 320.084 432.534 319.521 432.082ZM333.8 427.761C334.442 427.429 335.232 427.679 335.564 428.32C335.896 428.96 335.646 429.748 335.004 430.08C332.347 431.454 330.317 433.757 328.902 437.042C327.384 440.566 326.142 443.712 325.176 446.476C324.938 447.157 324.192 447.516 323.51 447.279C322.827 447.041 322.467 446.296 322.705 445.615C323.693 442.789 324.957 439.588 326.498 436.01C328.143 432.193 330.581 429.426 333.8 427.761ZM341.407 427.692C340.931 427.15 340.104 427.095 339.561 427.571C337.377 429.481 335.699 431.218 334.524 432.793C333.358 434.357 331.993 436.696 330.413 439.826C330.088 440.47 330.347 441.255 330.992 441.58C331.638 441.904 332.424 441.645 332.75 441.001C334.268 437.995 335.564 435.773 336.624 434.352C337.675 432.943 339.229 431.333 341.285 429.535C341.829 429.06 341.883 428.235 341.407 427.692ZM336.63 442.441C336.086 442.916 335.26 442.862 334.784 442.319C334.307 441.777 334.362 440.952 334.906 440.476C336.961 438.679 338.516 437.069 339.567 435.659C340.626 434.238 341.923 432.017 343.441 429.01C343.766 428.366 344.553 428.107 345.198 428.432C345.844 428.757 346.103 429.542 345.778 430.186C344.198 433.315 342.832 435.655 341.666 437.219C340.492 438.794 338.814 440.531 336.63 442.441ZM326.724 428.826C326.129 428.416 325.314 428.565 324.904 429.159C321.978 433.387 320.111 436.546 319.285 438.692C318.456 440.846 317.883 443.749 317.551 447.418C317.486 448.136 318.017 448.771 318.736 448.836C319.456 448.901 320.092 448.372 320.157 447.653C320.469 444.204 320.998 441.524 321.727 439.629C322.407 437.862 323.992 435.137 326.469 431.499L327.057 430.643C327.467 430.049 327.318 429.236 326.724 428.826Z" fill="#001933"/>
<path fill-rule="evenodd" clip-rule="evenodd" d="M301.884 421.123L302.786 423.123L304.841 423.712C304.952 423.744 305.016 423.86 304.985 423.97C304.975 424.005 304.956 424.036 304.931 424.061L303.369 425.613L303.457 427.846C303.461 427.961 303.371 428.058 303.256 428.063C303.217 428.064 303.178 428.055 303.144 428.035L301.376 427.03C301.321 426.999 301.255 426.994 301.195 427.018L299.305 427.767C299.197 427.81 299.075 427.758 299.033 427.65C299.018 427.614 299.014 427.574 299.021 427.536L299.419 425.337L298.089 423.583C298.02 423.491 298.038 423.36 298.13 423.291C298.158 423.269 298.192 423.255 298.227 423.25L300.344 422.953L301.516 421.098C301.578 421 301.707 420.971 301.805 421.032C301.84 421.054 301.867 421.086 301.884 421.123Z" fill="#001933"/>
<path fill-rule="evenodd" clip-rule="evenodd" d="M374.691 141.139C375.173 141.565 375.774 142.333 376.304 143.165L376.987 142.862L377.795 142.517C377.957 142.443 378.062 142.385 378.094 142.338C378.187 142.165 378.402 142.099 378.577 142.191C378.747 142.283 378.816 142.497 378.723 142.67C378.659 142.834 378.206 143.348 377.363 143.852C377.211 143.943 377.042 144.028 376.861 144.11C377.172 144.69 377.416 145.251 377.53 145.7C377.703 146.362 377.565 146.832 377.337 146.997C377.114 147.16 376.554 147.19 375.701 146.484C375.544 146.365 375.52 146.142 375.639 145.987C375.758 145.833 375.98 145.804 376.137 145.923C376.299 146.043 376.463 146.11 376.595 146.159L376.531 145.906C376.506 145.815 376.474 145.721 376.431 145.628C376.278 145.295 376.084 144.914 375.866 144.523C375.199 144.774 374.44 145.002 373.621 145.112C373.221 145.165 372.814 145.176 372.391 145.172C372.148 145.188 371.937 145.004 371.921 144.761C371.905 144.518 372.09 144.308 372.333 144.292C373.319 144.197 374.23 143.948 375.035 143.669L375.299 143.574C374.863 142.895 374.397 142.278 373.997 141.93C373.781 141.738 373.759 141.406 373.948 141.187C374.143 140.969 374.475 140.947 374.691 141.139Z" fill="#001933"/>
<path fill-rule="evenodd" clip-rule="evenodd" d="M86.6119 317.928C85.2413 318.015 83.0676 318.359 81.2903 319.059C79.7699 319.658 79.7501 336.028 84.9438 337.343C90.1069 339.072 95.7575 336.807 95.0938 328.046C95.0819 327.862 94.9338 327.364 94.7641 326.792C94.5156 325.956 94.2207 324.962 94.239 324.574C94.3107 323.199 93.9499 322.038 92.9949 321.308C91.9676 319.128 89.951 317.719 86.6119 317.928ZM85.8496 333.359C83.308 331.458 83.4087 322.613 86.313 322.028C88.1181 323.417 89.7649 325.42 90.3164 329.274C89.691 331.395 88.3751 332.619 87.2244 333.691C87.1013 333.805 86.9801 333.918 86.8619 334.03C86.534 333.843 86.1963 333.616 85.8496 333.359Z" fill="#007BFF"/>
<path fill-rule="evenodd" clip-rule="evenodd" d="M82.767 328.195C82.5382 326.818 82.6972 325.277 83.3925 323.633C83.7078 322.889 84.535 322.283 85.5695 321.877C86.7789 321.403 88.2578 321.17 89.1903 321.111C91.4621 320.969 92.8337 321.921 93.532 323.396C94.1815 323.89 94.4267 324.675 94.3775 325.605C94.3563 326.047 94.9383 327.648 94.9581 327.954C95.4073 333.881 91.5623 335.415 88.0501 334.247C86.7144 334.922 85.4266 335.032 84.4585 334.31C83.59 333.667 82.9243 332.311 82.7744 329.922C82.7344 329.305 82.7319 328.73 82.767 328.195ZM89.004 324.305C86.9853 324.696 86.8933 330.503 88.6539 331.744C88.8942 331.912 89.1281 332.061 89.3554 332.182C90.2083 331.419 90.8443 330.801 91.2064 329.535C91.5685 328.27 90.2544 325.212 89.004 324.305Z" fill="#001933"/>
<path fill-rule="evenodd" clip-rule="evenodd" d="M220.192 473.114C219.596 472.706 218.782 472.857 218.373 473.452C217.964 474.046 218.115 474.859 218.711 475.267C219.365 475.716 219.943 476.13 220.454 476.514C219.904 476.951 219.355 477.451 218.784 478.021L217.627 479.194C217.118 479.706 217.122 480.533 217.635 481.041C218.149 481.548 218.977 481.545 219.486 481.032L220.874 479.632C221.439 479.083 221.968 478.623 222.501 478.242C223.684 479.412 224.045 480.271 224.064 481.124L224.064 481.343L224.071 481.477C224.138 482.135 224.695 482.649 225.372 482.649C226.095 482.649 226.681 482.064 226.681 481.343L226.68 481.086C226.656 479.756 226.186 478.49 224.919 477.044C225.756 476.795 226.698 476.656 227.841 476.597C228.563 476.559 229.117 475.944 229.08 475.224C229.042 474.504 228.426 473.951 227.705 473.988C225.72 474.092 224.178 474.422 222.804 475.049C222.231 474.581 221.581 474.09 220.847 473.57L220.192 473.114Z" fill="#001933"/>
<path fill-rule="evenodd" clip-rule="evenodd" d="M220.192 473.114C219.596 472.706 218.782 472.857 218.373 473.452C217.964 474.046 218.115 474.859 218.711 475.267C219.365 475.716 219.943 476.13 220.454 476.514C219.904 476.951 219.355 477.451 218.784 478.021L217.627 479.194C217.118 479.706 217.122 480.533 217.635 481.041C218.149 481.548 218.977 481.545 219.486 481.032L220.874 479.632C221.439 479.083 221.968 478.623 222.501 478.242C223.684 479.412 224.045 480.271 224.064 481.124L224.064 481.343L224.071 481.477C224.138 482.135 224.695 482.649 225.372 482.649C226.095 482.649 226.681 482.064 226.681 481.343L226.68 481.086C226.656 479.756 226.186 478.49 224.919 477.044C225.756 476.795 226.698 476.656 227.841 476.597C228.563 476.559 229.117 475.944 229.08 475.224C229.042 474.504 228.426 473.951 227.705 473.988C225.72 474.092 224.178 474.422 222.804 475.049C222.231 474.581 221.581 474.09 220.847 473.57L220.192 473.114Z" fill="#001933"/>
<path fill-rule="evenodd" clip-rule="evenodd" d="M264.908 437.336L265.809 439.336L267.865 439.925C267.976 439.957 268.04 440.072 268.008 440.183C267.998 440.218 267.98 440.249 267.954 440.274L266.393 441.825L266.48 444.059C266.485 444.174 266.395 444.271 266.279 444.275C266.24 444.277 266.202 444.268 266.168 444.248L264.4 443.243C264.344 443.212 264.278 443.207 264.219 443.231L262.328 443.98C262.221 444.023 262.099 443.97 262.056 443.863C262.042 443.827 262.038 443.787 262.045 443.749L262.443 441.55L261.113 439.796C261.043 439.704 261.061 439.573 261.153 439.504C261.182 439.482 261.215 439.468 261.25 439.463L263.368 439.166L264.54 437.31C264.601 437.213 264.731 437.184 264.828 437.245C264.863 437.267 264.891 437.299 264.908 437.336Z" fill="#001933"/>
<path fill-rule="evenodd" clip-rule="evenodd" d="M151.478 423.595L153.011 425.166L155.144 425.018C155.259 425.01 155.359 425.097 155.367 425.212C155.37 425.247 155.363 425.283 155.348 425.315L154.412 427.306L155.26 429.375C155.303 429.482 155.252 429.604 155.145 429.647C155.109 429.662 155.069 429.667 155.031 429.66L153.025 429.319C152.962 429.309 152.898 429.327 152.851 429.369L151.331 430.719C151.244 430.796 151.112 430.788 151.035 430.702C151.009 430.673 150.992 430.637 150.985 430.598L150.606 428.396L148.755 427.202C148.658 427.139 148.63 427.01 148.693 426.913C148.712 426.883 148.739 426.859 148.77 426.842L150.658 425.84L151.124 423.696C151.148 423.584 151.26 423.512 151.373 423.536C151.413 423.545 151.449 423.565 151.478 423.595Z" fill="#001933"/>
<path fill-rule="evenodd" clip-rule="evenodd" d="M127.546 280.379L128.448 282.379L130.503 282.968C130.614 283 130.679 283.115 130.647 283.226C130.637 283.26 130.618 283.292 130.593 283.317L129.032 284.868L129.119 287.101C129.124 287.217 129.034 287.314 128.918 287.318C128.879 287.32 128.84 287.311 128.806 287.291L127.038 286.286C126.983 286.255 126.917 286.25 126.858 286.274L124.967 287.023C124.859 287.066 124.738 287.013 124.695 286.906C124.68 286.87 124.677 286.83 124.683 286.792L125.081 284.593L123.751 282.839C123.682 282.747 123.7 282.616 123.792 282.546C123.82 282.525 123.854 282.511 123.889 282.506L126.007 282.209L127.178 280.353C127.24 280.256 127.369 280.227 127.467 280.288C127.502 280.31 127.529 280.342 127.546 280.379Z" fill="#001933"/>
<path fill-rule="evenodd" clip-rule="evenodd" d="M127.337 282.371L127.72 283.22L128.593 283.47C128.64 283.484 128.667 283.533 128.654 283.58C128.65 283.595 128.642 283.608 128.631 283.619L127.968 284.278L128.005 285.226C128.007 285.275 127.969 285.316 127.92 285.318C127.903 285.319 127.887 285.315 127.872 285.307L127.121 284.88C127.098 284.867 127.07 284.865 127.044 284.874L126.241 285.193C126.196 285.211 126.144 285.189 126.126 285.143C126.12 285.128 126.118 285.111 126.121 285.095L126.29 284.16L125.725 283.416C125.695 283.377 125.703 283.321 125.742 283.291C125.754 283.282 125.769 283.276 125.784 283.274L126.683 283.148L127.181 282.36C127.207 282.318 127.262 282.306 127.303 282.332C127.318 282.341 127.33 282.355 127.337 282.371Z" fill="#003166"/>
<path fill-rule="evenodd" clip-rule="evenodd" d="M20.3627 368.123L21.2643 370.123L23.3196 370.712C23.4308 370.744 23.495 370.86 23.4631 370.97C23.4533 371.005 23.4348 371.036 23.4096 371.061L21.848 372.613L21.9355 374.846C21.94 374.961 21.85 375.058 21.7345 375.063C21.6954 375.064 21.6567 375.055 21.6227 375.035L19.8548 374.03C19.7996 373.999 19.733 373.994 19.6739 374.018L17.7832 374.767C17.6757 374.81 17.554 374.758 17.5113 374.65C17.4969 374.614 17.4929 374.574 17.4999 374.536L17.8979 372.337L16.5678 370.583C16.4981 370.491 16.5162 370.36 16.6084 370.291C16.6368 370.269 16.6703 370.255 16.7056 370.25L18.823 369.953L19.9947 368.098C20.0563 368 20.1856 367.971 20.2834 368.032C20.3182 368.054 20.3458 368.086 20.3627 368.123Z" fill="#001933"/>
<path fill-rule="evenodd" clip-rule="evenodd" d="M110.953 188.546L111.608 189.002C112.343 189.522 115.087 192.104 115.66 192.572C117.032 191.943 118.575 191.613 120.559 191.51C121.281 191.472 121.896 192.026 121.934 192.746C121.972 193.466 121.417 194.081 120.696 194.118C119.552 194.178 118.61 194.317 117.773 194.566C119.04 196.013 119.511 197.278 119.535 198.607L119.535 198.864C119.535 199.586 118.949 200.17 118.227 200.17C117.549 200.17 116.992 199.656 116.925 198.998L116.918 198.864L116.918 198.645C116.899 197.792 116.539 196.934 115.356 195.763C114.823 196.145 114.294 196.604 113.729 197.153L112.34 198.554C111.832 199.066 111.003 199.07 110.49 198.562C109.977 198.054 109.973 197.227 110.482 196.715L111.639 195.542C112.209 194.973 112.758 194.473 113.308 194.036C112.343 191.836 108.725 189.478 109.134 188.883C109.543 188.289 110.357 188.138 110.953 188.546Z" fill="#001933"/>
<path fill-rule="evenodd" clip-rule="evenodd" d="M363.395 339.161L365.178 340.442L367.253 339.927C367.365 339.899 367.478 339.967 367.506 340.079C367.515 340.113 367.515 340.15 367.505 340.184L366.93 342.307L368.125 344.197C368.186 344.295 368.157 344.424 368.059 344.486C368.026 344.506 367.988 344.518 367.949 344.518L365.914 344.53C365.851 344.53 365.791 344.559 365.751 344.609L364.489 346.202C364.418 346.292 364.286 346.308 364.195 346.236C364.165 346.212 364.141 346.18 364.128 346.143L363.371 344.04L361.341 343.185C361.234 343.14 361.184 343.018 361.229 342.911C361.243 342.878 361.265 342.85 361.293 342.828L362.978 341.513L363.063 339.322C363.068 339.207 363.165 339.117 363.281 339.121C363.322 339.123 363.362 339.137 363.395 339.161Z" fill="#001933"/>
<path fill-rule="evenodd" clip-rule="evenodd" d="M383.872 257.31L384.412 259.436L386.334 260.372C386.437 260.422 386.481 260.548 386.43 260.651C386.414 260.683 386.391 260.711 386.361 260.731L384.554 261.989L384.251 264.203C384.236 264.317 384.13 264.397 384.016 264.382C383.977 264.376 383.94 264.36 383.91 264.335L382.344 263.039C382.295 262.999 382.23 262.983 382.168 262.996L380.176 263.406C380.062 263.429 379.952 263.357 379.928 263.244C379.92 263.205 379.923 263.166 379.937 263.129L380.711 261.032L379.707 259.075C379.654 258.972 379.695 258.846 379.798 258.794C379.829 258.777 379.865 258.77 379.9 258.771L382.037 258.845L383.514 257.221C383.592 257.135 383.724 257.129 383.81 257.207C383.84 257.234 383.862 257.27 383.872 257.31Z" fill="#001933"/>
<path fill-rule="evenodd" clip-rule="evenodd" d="M337.241 171.757L337.781 173.883L339.703 174.819C339.807 174.87 339.85 174.995 339.799 175.099C339.783 175.131 339.76 175.158 339.731 175.178L337.923 176.436L337.62 178.65C337.605 178.764 337.499 178.844 337.385 178.829C337.346 178.824 337.309 178.808 337.279 178.783L335.713 177.487C335.664 177.446 335.599 177.43 335.537 177.443L333.545 177.853C333.432 177.877 333.321 177.804 333.297 177.691C333.29 177.653 333.293 177.613 333.306 177.576L334.081 175.48L333.076 173.522C333.023 173.419 333.064 173.294 333.167 173.241C333.198 173.225 333.234 173.217 333.269 173.218L335.406 173.292L336.883 171.668C336.961 171.583 337.093 171.576 337.179 171.654C337.209 171.681 337.231 171.717 337.241 171.757Z" fill="#001933"/>
<path fill-rule="evenodd" clip-rule="evenodd" d="M475.003 192.587L475.798 192.516C476.696 192.443 477.511 192.403 478.252 192.393C478.899 191.032 479.867 189.789 481.321 188.437C481.85 187.945 482.678 187.974 483.17 188.501C483.663 189.029 483.634 189.855 483.105 190.347C482.268 191.126 481.635 191.838 481.155 192.566C483.057 192.861 484.232 193.528 485.107 194.531L485.273 194.728C485.737 195.28 485.665 196.104 485.111 196.568C484.593 197.002 483.835 196.966 483.359 196.505L483.268 196.407L483.127 196.239C482.563 195.598 481.734 195.171 480.074 195.034C479.912 195.668 479.802 196.359 479.723 197.142L479.561 199.106C479.502 199.825 478.869 200.359 478.149 200.3C477.429 200.24 476.894 199.609 476.954 198.89L477.085 197.249C477.155 196.447 477.253 195.711 477.393 195.024C476.756 195.057 476.046 195.111 475.255 195.187C474.536 195.256 473.896 194.731 473.826 194.013C473.757 193.295 474.284 192.657 475.003 192.587Z" fill="#001933"/>
<path fill-rule="evenodd" clip-rule="evenodd" d="M369.349 282.737C369.112 283.334 368.594 284.161 367.992 284.943L368.511 285.48L369.112 286.119L369.246 286.247C369.304 286.299 369.35 286.33 369.383 286.339C369.578 286.367 369.713 286.546 369.686 286.741C369.658 286.932 369.48 287.07 369.286 287.042C369.11 287.038 368.47 286.789 367.708 286.171C367.57 286.059 367.432 285.93 367.293 285.788C366.853 286.278 366.409 286.699 366.025 286.96C365.461 287.349 364.972 287.38 364.738 287.222C364.508 287.069 364.288 286.554 364.662 285.513C364.72 285.324 364.922 285.225 365.108 285.284C365.294 285.343 365.397 285.541 365.338 285.729C365.281 285.922 365.274 286.099 365.273 286.24L365.49 286.093C365.566 286.038 365.645 285.976 365.717 285.904C365.978 285.647 366.271 285.334 366.564 284.996C366.099 284.456 365.625 283.823 365.242 283.092C365.055 282.735 364.906 282.357 364.764 281.959C364.666 281.737 364.767 281.476 364.991 281.377C365.214 281.279 365.475 281.381 365.573 281.603C366 282.496 366.546 283.265 367.084 283.924L367.263 284.139C367.754 283.499 368.175 282.851 368.366 282.357C368.472 282.088 368.778 281.954 369.048 282.057C369.321 282.164 369.455 282.468 369.349 282.737Z" fill="#003166"/>
<path fill-rule="evenodd" clip-rule="evenodd" d="M356.574 16.5747C357.372 16.4361 358.13 16.9688 358.269 17.7647C358.408 18.5605 357.874 19.318 357.077 19.4567C353.285 20.116 348.721 22.3785 344.778 26.0226C339.659 30.7544 335.882 37.4329 334.017 46.1506C332.515 53.1742 333.896 62.4217 337.822 70.1369C342.289 78.9145 349.47 84.8823 358.684 86.5622C368.143 88.2867 376.146 87.2157 385.084 84.044L385.907 83.7458C386.168 83.647 386.635 83.4674 387.22 83.2419L387.22 83.2419L387.222 83.2414L387.223 83.2408C389.376 82.4117 393.134 80.9645 394.213 80.6388C397.103 79.7665 399.074 79.8394 400.504 81.3598C401.058 81.9489 401.028 82.8745 400.438 83.4273C399.885 83.9455 399.035 83.9521 398.475 83.4655L398.367 83.3616C397.945 82.9131 397.073 82.8612 395.318 83.3634L395.062 83.4389C394.11 83.7262 390.626 85.067 388.455 85.9028C387.613 86.2266 386.969 86.4746 386.745 86.5562C377.091 90.0737 368.428 91.3124 358.158 89.44C347.98 87.5845 340.068 81.0083 335.209 71.4618C330.987 63.1651 329.505 53.2377 331.151 45.5399C333.141 36.2357 337.222 29.0199 342.787 23.8761C347.144 19.8496 352.224 17.331 356.574 16.5747ZM366.485 23.641C367.279 23.4858 368.049 24.0026 368.205 24.7953C368.36 25.5881 367.843 26.3566 367.048 26.5119C355.171 28.8336 345.62 37.8885 342.849 49.8655C341.912 53.919 342.195 57.2149 343.116 58.4724L343.238 58.63L343.247 58.652L343.264 58.6387C343.594 58.342 343.979 57.5839 344.278 56.4086L344.34 56.1504C347.189 43.8322 356.598 34.2972 368.616 31.0951C369.398 30.8868 370.201 31.3506 370.41 32.1311C370.618 32.9116 370.154 33.7132 369.372 33.9215C358.544 36.8064 350.038 45.3149 347.308 56.341L347.196 56.8084C346.191 61.1529 343.306 63.2268 340.969 60.4767C339.259 58.4652 338.84 54.1972 339.994 49.2075C343.026 36.0959 353.483 26.1826 366.485 23.641ZM384.109 39.6953C384.052 38.8896 383.351 38.283 382.543 38.3405C368.281 39.3561 355.773 48.6026 350.796 62.2498C348.908 67.4283 348.796 72.0336 350.342 74.3822C352.416 77.5324 355.678 75.7454 357.304 71.285L357.475 70.8273C361.876 59.2777 372.188 51.2111 384.261 49.529C385.063 49.4174 385.622 48.6783 385.51 47.8782C385.398 47.0781 384.658 46.5201 383.856 46.6318C370.56 48.4842 359.225 57.463 354.55 70.2844L354.447 70.5584C353.927 71.8928 353.358 72.6973 352.927 72.9335L352.907 72.9463C352.905 72.9482 352.903 72.9499 352.901 72.9514L352.9 72.953C352.896 72.9561 352.894 72.9579 352.893 72.9577C352.89 72.9574 352.889 72.9532 352.885 72.9435C352.875 72.9219 352.855 72.8726 352.791 72.7757L352.713 72.6485C351.863 71.1434 351.993 67.5224 353.55 63.2503C358.128 50.6972 369.632 42.1927 382.752 41.2584C383.559 41.2009 384.167 40.5011 384.109 39.6953ZM390.492 53.915C391.299 53.8575 392 54.4641 392.058 55.2699C392.115 56.0757 391.507 56.7755 390.7 56.833C381.502 57.488 373.436 63.4506 370.226 72.2519C369.275 74.8609 369.098 77.0916 369.439 78.2213L369.48 78.3473L369.545 78.254C369.709 78.0063 369.893 77.6505 370.074 77.1891L370.151 76.9849C373.541 67.6884 381.76 61.1778 391.4 59.8347C392.202 59.723 392.942 60.281 393.054 61.0811C393.166 61.8812 392.607 62.6203 391.805 62.732C383.372 63.9069 376.164 69.5247 373.059 77.5741L372.905 77.9855C371.648 81.4329 368.929 82.9222 367.191 80.2824C366.001 78.4735 366.084 75.0586 367.472 71.2514C371.081 61.356 380.15 54.6514 390.492 53.915ZM398.215 65.6999C398.157 64.8941 397.456 64.2875 396.649 64.345C389.723 64.8382 383.649 69.3284 381.233 75.9554C380.28 78.568 380.222 80.9459 381.103 82.2847C382.548 84.4798 384.794 83.2499 385.729 80.6849L385.856 80.3481C387.825 75.3296 392.336 71.8308 397.611 71.0959C398.412 70.9842 398.971 70.2451 398.859 69.4451C398.748 68.645 398.007 68.087 397.206 68.1986L396.834 68.2544C391.156 69.1673 386.257 72.7645 383.717 77.9416L383.628 78.1259L383.683 77.916C383.765 77.6105 383.865 77.289 383.987 76.9559C386.004 71.423 391.075 67.6747 396.858 67.2629C397.665 67.2055 398.273 66.5057 398.215 65.6999Z" fill="#001933"/>
<path fill-rule="evenodd" clip-rule="evenodd" d="M390.492 53.916C391.299 53.8585 392 54.4651 392.058 55.2709C392.115 56.0766 391.507 56.7764 390.7 56.8339C381.502 57.489 373.436 63.4516 370.226 72.2529C369.275 74.8619 369.098 77.0926 369.439 78.2222L369.48 78.3483L369.545 78.255C369.709 78.0073 369.893 77.6515 370.074 77.1901L370.151 76.9859C373.541 67.6894 381.76 61.1788 391.4 59.8357C392.202 59.724 392.942 60.282 393.054 61.0821C393.166 61.8821 392.607 62.6213 391.805 62.7329C383.372 63.9079 376.164 69.5257 373.059 77.5751L372.905 77.9865C371.648 81.4339 368.929 82.9232 367.192 80.2834C366.001 78.4745 366.084 75.0596 367.472 71.2524C371.081 61.357 380.15 54.6524 390.492 53.916Z" fill="#001933"/>
<path d="M299.228 244.355C329.95 230.012 355.636 222.435 371.627 221.044C376.525 220.618 378.746 223.313 377.506 227.697C376.585 230.951 373.781 235.418 369.482 240.708C361.989 249.928 352.109 257.819 342.27 265.158C358.01 250.656 362.025 244.59 366.88 238.616L367.642 237.666C371.242 233.123 373.568 229.328 374.285 226.795L374.387 226.411C374.833 224.583 374.316 224.15 371.919 224.359C356.289 225.718 330.701 233.31 300.092 247.634C269.433 261.981 268.556 258.675 299.228 244.355Z" fill="#007BFF"/>
<path d="M158.72 197.955L158.945 198.489C160.501 202.172 162.119 205.82 163.954 209.798L164.668 211.342C164.434 211.499 164.126 211.665 163.788 211.813C163.302 212.025 162.809 212.173 162.438 212.223L162.32 212.235L162.142 212.022C160.754 210.317 159.144 207.42 157.981 204.54C157.361 203.006 156.92 201.599 156.721 200.518C156.64 200.077 156.602 199.707 156.606 199.427L156.614 199.242C156.617 199.197 156.617 199.174 156.606 199.17L156.65 199.141C156.898 198.97 157.531 198.6 158.471 198.09L158.72 197.955Z" fill="#007BFF"/>
<path fill-rule="evenodd" clip-rule="evenodd" d="M197.557 184.611C198.519 183.436 199.766 183.611 201.345 184.567L201.751 184.823L202.886 185.574C203.204 185.777 203.341 185.847 203.526 185.921C203.956 186.091 204.166 186.578 203.995 187.006C203.824 187.435 203.337 187.645 202.907 187.474L202.754 187.411C202.464 187.287 202.244 187.158 201.656 186.768L200.841 186.226C200.707 186.139 200.591 186.066 200.477 185.996C199.532 185.425 199.103 185.364 198.854 185.668C198.697 185.86 198.736 186.268 199.047 187.106L199.389 187.984C200.068 189.784 200.072 190.588 198.862 191.275C197.821 191.866 197.287 191.59 195.791 190.127L195.428 189.768C194.47 188.813 193.968 188.481 193.645 188.549C193.537 188.572 193.412 188.648 193.259 188.811C193.079 189.002 193.029 189.613 193.139 190.696L193.307 192.111C193.504 193.84 193.425 194.288 192.71 194.766C191.725 195.424 190.414 194.68 187.985 192.503C187.641 192.194 187.612 191.666 187.921 191.322C188.23 190.979 188.76 190.951 189.104 191.259C190.142 192.19 190.927 192.796 191.474 193.107L191.597 193.174L191.699 193.225L191.702 193.12L191.695 192.87C191.684 192.664 191.659 192.416 191.608 191.995L191.501 191.127C191.297 189.366 191.361 188.387 192.037 187.667C192.413 187.268 192.835 187.012 193.298 186.914C194.374 186.687 195.138 187.146 196.407 188.384L197.047 189.013C197.738 189.676 197.994 189.845 198.035 189.822C198.191 189.733 198.168 189.456 197.743 188.369L197.558 187.898C196.966 186.38 196.853 185.471 197.557 184.611Z" fill="#001933"/>
<path fill-rule="evenodd" clip-rule="evenodd" d="M288.975 48.5671L288.18 48.6379C287.461 48.7074 286.934 49.3457 287.004 50.0636C287.046 50.4975 287.296 50.8612 287.646 51.0657L287.508 51.1637C286.918 51.58 286.778 52.3949 287.195 52.9839C287.612 53.5729 288.429 53.7129 289.019 53.2966L290.363 52.3462C290.324 52.6537 290.291 52.9711 290.262 53.2998L290.131 54.9408C290.071 55.6596 290.606 56.2907 291.326 56.3503C292.046 56.41 292.679 55.8757 292.739 55.1569L292.9 53.1932C292.942 52.7729 292.994 52.3789 293.057 52.0061C293.517 52.8761 293.609 53.5462 293.511 54.1801L293.473 54.3957L293.457 54.5283C293.408 55.1885 293.867 55.7912 294.535 55.9086C295.246 56.0338 295.925 55.5595 296.05 54.8492L296.095 54.5963C296.234 53.7151 296.17 52.828 295.813 51.8432C296 51.9773 296.161 52.1266 296.304 52.2897L296.445 52.4573L296.536 52.5553C297.012 53.0168 297.77 53.053 298.289 52.6183C298.842 52.1547 298.914 51.3309 298.45 50.7784L298.284 50.5818C298.226 50.5144 298.165 50.4484 298.104 50.384C298.787 50.4239 299.393 49.9272 299.477 49.2396C299.566 48.5237 299.056 47.872 298.338 47.784C297.105 47.6326 296.026 47.5985 295.034 47.6874C295.39 47.2694 295.802 46.8448 296.283 46.398C296.811 45.9062 296.84 45.0798 296.348 44.5522C295.855 44.0246 295.027 43.9956 294.498 44.4874C293.612 45.3124 292.905 46.0964 292.343 46.8915C292.125 46.6613 291.897 46.4255 291.657 46.1834L291.092 45.6207C290.576 45.1154 289.748 45.123 289.241 45.6377C288.735 46.1524 288.743 46.9792 289.258 47.4845C289.617 47.8355 289.947 48.1676 290.252 48.4823C289.846 48.5027 289.421 48.531 288.975 48.5671Z" fill="#001933"/>
<path fill-rule="evenodd" clip-rule="evenodd" d="M238.522 57.6037C238.204 57.284 237.692 57.2994 237.379 57.6383C237.067 57.9771 237.071 58.5111 237.39 58.8308C237.689 59.132 237.958 59.4114 238.198 59.6716C237.698 59.8951 237.196 60.1819 236.659 60.5343L235.841 61.0809C235.482 61.3193 235.407 61.7868 235.674 62.1251C235.94 62.4634 236.448 62.5444 236.808 62.3061L237.789 61.6541C238.302 61.3268 238.764 61.0781 239.23 60.9016C239.949 61.8807 240.102 62.5124 240.016 63.1009L239.993 63.2406L239.982 63.3265C239.952 63.7535 240.236 64.1368 240.648 64.2041C241.088 64.276 241.507 63.961 241.584 63.5006L241.612 63.3367C241.741 62.4813 241.589 61.6229 240.967 60.5675C241.38 60.5552 241.83 60.5797 242.34 60.6383C242.786 60.6894 243.183 60.3979 243.227 59.9872C243.271 59.5766 242.946 59.2022 242.5 59.1511C241.519 59.0385 240.698 59.0365 239.948 59.1514C239.639 58.7803 239.282 58.3848 238.872 57.9599L238.522 57.6037Z" fill="#003166"/>
<path fill-rule="evenodd" clip-rule="evenodd" d="M69.9369 275.336L70.8385 277.336L72.8938 277.925C73.005 277.957 73.0692 278.072 73.0373 278.183C73.0275 278.218 73.009 278.249 72.9838 278.274L71.4222 279.825L71.5097 282.059C71.5142 282.174 71.4242 282.271 71.3087 282.275C71.2696 282.277 71.2309 282.268 71.1969 282.248L69.429 281.243C69.3738 281.212 69.3072 281.207 69.2482 281.231L67.3574 281.98C67.2499 282.023 67.1282 281.97 67.0855 281.863C67.0711 281.827 67.0671 281.787 67.0741 281.749L67.4721 279.55L66.1421 277.796C66.0723 277.704 66.0904 277.573 66.1826 277.504C66.211 277.482 66.2445 277.468 66.2798 277.463L68.3972 277.166L69.5689 275.31C69.6306 275.213 69.7598 275.184 69.8576 275.245C69.8924 275.267 69.92 275.299 69.9369 275.336Z" fill="#001933"/>
<path fill-rule="evenodd" clip-rule="evenodd" d="M81.9603 164.336L82.862 166.336L84.9173 166.925C85.0284 166.957 85.0926 167.072 85.0607 167.183C85.0509 167.218 85.0325 167.249 85.0072 167.274L83.4456 168.825L83.5331 171.059C83.5376 171.174 83.4476 171.271 83.3321 171.275C83.293 171.277 83.2543 171.268 83.2203 171.248L81.4525 170.243C81.3972 170.212 81.3307 170.207 81.2716 170.231L79.3808 170.98C79.2734 171.023 79.1517 170.97 79.109 170.863C79.0945 170.827 79.0906 170.787 79.0975 170.749L79.4955 168.55L78.1655 166.796C78.0957 166.704 78.1139 166.573 78.206 166.504C78.2345 166.482 78.2679 166.468 78.3032 166.463L80.4206 166.166L81.5923 164.31C81.654 164.213 81.7833 164.184 81.8811 164.245C81.9159 164.267 81.9434 164.299 81.9603 164.336Z" fill="#001933"/>
<path d="M109.193 341.06C109.865 340.573 110.804 340.722 111.292 341.392C111.78 342.063 90.5189 359.347 82.2713 367.269L81.3127 368.197C76.6019 372.798 73.1285 376.782 71.1707 379.931C69.0962 383.269 68.9631 385.081 70.3024 385.822C75.384 388.633 82.6902 390.003 93.1542 388.272L94.2294 388.089C98.2125 387.393 128.175 380.871 127.7 381.044L127.516 381.099C126.571 381.349 114.371 385.56 110.16 386.63L109.651 386.758C103.214 388.375 98.1769 389.483 93.6454 390.232C82.5722 392.063 74.6607 391.663 68.8456 388.446C65.4899 386.59 65.7571 382.95 68.6168 378.35C70.8661 374.731 74.8224 370.26 80.1873 365.107C88.5453 357.08 100.301 347.505 109.193 341.06Z" fill="#007BFF"/>
</svg>
