<svg width="24" height="24" viewBox="0 0 24 24" fill="none" xmlns="http://www.w3.org/2000/svg">
<g clip-path="url(#clip0_5055_98938)">
<path d="M24.002 4.5585C23.1095 4.95 22.1585 5.2095 21.167 5.3355C22.187 4.7265 22.9655 3.7695 23.3315 2.616C22.3805 3.183 21.3305 3.5835 20.2115 3.807C19.3085 2.8455 18.0215 2.25 16.6175 2.25C13.8935 2.25 11.7005 4.461 11.7005 7.1715C11.7005 7.5615 11.7335 7.9365 11.8145 8.2935C7.72395 8.094 4.10445 6.1335 1.67295 3.147C1.24845 3.8835 0.999453 4.7265 0.999453 5.634C0.999453 7.338 1.87695 8.8485 3.18495 9.723C2.39445 9.708 1.61895 9.4785 0.961953 9.117C0.961953 9.132 0.961953 9.1515 0.961953 9.171C0.961953 11.562 2.66745 13.548 4.90395 14.0055C4.50345 14.115 4.06695 14.1675 3.61395 14.1675C3.29895 14.1675 2.98095 14.1495 2.68245 14.0835C3.31995 16.032 5.12895 17.4645 7.27995 17.511C5.60595 18.8205 3.48045 19.6095 1.17945 19.6095C0.775953 19.6095 0.388953 19.5915 0.00195312 19.542C2.18145 20.9475 4.76445 21.75 7.54995 21.75C16.604 21.75 21.554 14.25 21.554 7.749C21.554 7.5315 21.5465 7.3215 21.536 7.113C22.5125 6.42 23.333 5.5545 24.002 4.5585Z" fill="white"/>
</g>
<defs>
<clipPath id="clip0_5055_98938">
<rect width="24" height="24" fill="white" transform="translate(0.00195312)"/>
</clipPath>
</defs>
</svg>
