<svg width="24" height="24" viewBox="0 0 24 24" fill="none" xmlns="http://www.w3.org/2000/svg">
<g clip-path="url(#clip0_5055_98931)">
<path fill-rule="evenodd" clip-rule="evenodd" d="M21.3922 4.12335C22.4202 4.4002 23.2308 5.21063 23.5075 6.23876C24.0216 8.11668 24.0019 12.0311 24.0019 12.0311C24.0019 12.0311 24.0019 15.9255 23.5077 17.8036C23.2308 18.8316 22.4204 19.6422 21.3922 19.9189C19.5141 20.4133 12.0019 20.4133 12.0019 20.4133C12.0019 20.4133 4.50926 20.4133 2.61156 19.8993C1.58343 19.6224 0.773007 18.8118 0.496153 17.7839C0.00195312 15.9255 0.00195312 12.0113 0.00195312 12.0113C0.00195312 12.0113 0.00195312 8.11668 0.496153 6.23876C0.772824 5.21081 1.6032 4.38043 2.61138 4.10376C4.48948 3.60938 12.0017 3.60938 12.0017 3.60938C12.0017 3.60938 19.5141 3.60938 21.3922 4.12335ZM15.8569 12.0111L9.60986 15.6091V8.41309L15.8569 12.0111Z" fill="white"/>
</g>
<defs>
<clipPath id="clip0_5055_98931">
<rect width="24" height="24" fill="white" transform="translate(0.00195312)"/>
</clipPath>
</defs>
</svg>
